<svg xmlns="http://www.w3.org/2000/svg" width="93" height="45" viewBox="0 0 93 45"><defs><style>.a,.b,.c{fill:#44d7b6;}.a{opacity:0.1;}.b{opacity:0.05;}.c{opacity:0.2;}</style></defs><g transform="translate(-546.354 -4124)"><path class="a" d="M69.291,30H0a35.006,35.006,0,0,1,69.291,0h0Z" transform="translate(546.354 4139)"/><path class="b" d="M69.29,30H0a35.005,35.005,0,0,1,69.29,0h0Z" transform="translate(570.064 4139)"/><path class="c" d="M69.245,45H1.464a34.748,34.748,0,0,1,8.891-34.749,35.558,35.558,0,0,1,50,0,34.866,34.866,0,0,1,7.577,11.125A34.83,34.83,0,0,1,69.246,45Z" transform="translate(557 4124)"/></g></svg>