<svg xmlns="http://www.w3.org/2000/svg" width="25" height="25" viewBox="0 0 25 25">
    <g transform="translate(-2 -2)">
        <g transform="translate(2 2)">
            <path style="fill: white;"
                d="M18.951,23.07A1.894,1.894,0,1,1,20.843,25,1.916,1.916,0,0,1,18.951,23.07Zm-14.066,0A1.894,1.894,0,1,1,6.778,25,1.916,1.916,0,0,1,4.885,23.07Zm2.1-3.954a3.2,3.2,0,0,1-3.181-2.986L2.665,2.232.778,1.9A.956.956,0,0,1,.014.793.94.94,0,0,1,1.1.013L3.7.474a.948.948,0,0,1,.773.863l1.2,14.634A1.32,1.32,0,0,0,6.989,17.2H20.627a1.333,1.333,0,0,0,1.3-1.151l1.186-8.367a.757.757,0,0,0-.172-.6.728.728,0,0,0-.559-.26H8.955a.957.957,0,0,1,0-1.914h13.43a2.589,2.589,0,0,1,1.977.922,2.7,2.7,0,0,1,.611,2.127l-1.187,8.367a3.229,3.229,0,0,1-3.159,2.79Zm8.169-7.578a.957.957,0,0,1,0-1.914h3.466a.957.957,0,0,1,0,1.914Z"
                transform="translate(0 0)" />
        </g>
    </g>
</svg>