<svg xmlns="http://www.w3.org/2000/svg" width="36" height="24" viewBox="0 0 36 24">
  <path id="Icon_zocial-email" data-name="Icon zocial-email" d="M.072,25.942V6.194q0-.034.1-.651l11.769,9.943L.211,26.628a2.874,2.874,0,0,1-.139-.686ZM1.634,4.171a1.513,1.513,0,0,1,.59-.1h31.7a1.988,1.988,0,0,1,.625.1l-11.8,9.977-1.562,1.234-3.09,2.5L15,15.382l-1.562-1.234Zm.035,23.794L13.507,16.754l4.582,3.669,4.582-3.669L34.51,27.965a1.686,1.686,0,0,1-.59.1H2.224a1.59,1.59,0,0,1-.555-.1Zm22.565-12.48L35.968,5.542a2.023,2.023,0,0,1,.1.651V25.942a2.6,2.6,0,0,1-.1.686Z" transform="translate(-0.072 -4.068)" fill="#9292ff"/>
</svg>
