<svg id="google" xmlns="http://www.w3.org/2000/svg" width="15" height="15" viewBox="0 0 15 15">
  <path id="Path_528" data-name="Path 528" d="M3.333,143.3,2.81,145.25.9,145.29a7.533,7.533,0,0,1-.055-7.022h0l1.7.312.746,1.693a4.488,4.488,0,0,0,.042,3.022Z" transform="translate(0 -134.227)" fill="#fbbb00"/>
  <path id="Path_529" data-name="Path 529" d="M268.851,208.176a7.517,7.517,0,0,1-2.681,7.269h0l-2.146-.109-.3-1.9a4.482,4.482,0,0,0,1.928-2.289h-4.021v-2.975h7.223Z" transform="translate(-253.983 -202.101)" fill="#518ef8"/>
  <path id="Path_530" data-name="Path 530" d="M41.84,313.7h0a7.522,7.522,0,0,1-11.332-2.3l2.437-1.995a4.472,4.472,0,0,0,6.445,2.29Z" transform="translate(-29.613 -300.36)" fill="#28b446"/>
  <path id="Path_531" data-name="Path 531" d="M40.1,1.731,37.667,3.726a4.472,4.472,0,0,0-6.593,2.342l-2.45-2.006h0A7.522,7.522,0,0,1,40.1,1.731Z" transform="translate(-27.783)" fill="#f14336"/>
</svg>
