<svg xmlns="http://www.w3.org/2000/svg" xmlns:xlink="http://www.w3.org/1999/xlink" width="285" height="250" viewBox="0 0 285 250"><defs><style>.a{opacity:0.4;fill:url(#a);}.b,.c{opacity:0.3;}.b{fill:url(#b);}.c{fill:url(#c);}</style><linearGradient id="a" x1="0.029" x2="0.619" y2="1.021" gradientUnits="objectBoundingBox"><stop offset="0" stop-color="#ffeec5"/><stop offset="1" stop-color="#ffb98a"/></linearGradient><linearGradient id="b" x1="0.029" x2="0.619" y2="1.021" gradientUnits="objectBoundingBox"><stop offset="0" stop-color="#f8cb5c"/><stop offset="1" stop-color="#fff"/></linearGradient><linearGradient id="c" x1="0.971" x2="0.381" y2="1.021" gradientUnits="objectBoundingBox"><stop offset="0" stop-color="#ff8d41"/><stop offset="1" stop-color="#f4fafe"/></linearGradient></defs><g transform="translate(-675 -3528)"><path class="a" d="M285.036,0S241.793,372.54,133.474,204.769.036,225.1.036,225.1V0Z" transform="translate(674.964 3528)"/><path class="b" d="M284.964,0c.133,44.479-2.513,189.463-90.687,155.708-35.937-13.757-112.638-38.961-87.607,48.278S0,227.615,0,227.615V0Z" transform="translate(675 3528)"/><path class="c" d="M.036,0S-4.6,192.2,90.724,155.708c35.937-13.757,112.638-38.961,87.607,48.278S285,227.615,285,227.615V0Z" transform="translate(675 3528)"/></g></svg>