<svg xmlns="http://www.w3.org/2000/svg" xmlns:xlink="http://www.w3.org/1999/xlink" width="285" height="200" viewBox="0 0 285 200"><defs><style>.a,.b{opacity:0.1;}.a{fill:url(#a);}.b{fill:url(#b);}</style><linearGradient id="a" y1="0.484" x2="1" y2="0.5" gradientUnits="objectBoundingBox"><stop offset="0" stop-color="#ff80a5"/><stop offset="1" stop-color="#ffdee7"/></linearGradient><linearGradient id="b" x1="1" y1="0.484" x2="0" xlink:href="#a"/></defs><g transform="translate(-960 -3578)"><path class="a" d="M0,0S4.688,210.354,100.024,178.289,285,200,285,200V0Z" transform="translate(960 3578)"/><path class="b" d="M285,0s-4.688,187.354-100.024,155.289S0,177,0,177V0Z" transform="translate(960 3578)"/><path class="b" d="M285,0s-4.688,147.354-100.024,115.289S0,137,0,137V0Z" transform="translate(960 3578)"/><path class="b" d="M285,0s-5.082,107.354-100.284,75.289S0,97,0,97V0Z" transform="translate(960 3578)"/></g></svg>