<svg xmlns="http://www.w3.org/2000/svg" xmlns:xlink="http://www.w3.org/1999/xlink" width="285" height="200" viewBox="0 0 285 200"><defs><style>.a,.b{opacity:0.1;}.a{fill:url(#a);}.b{fill:url(#b);}</style><linearGradient id="a" x1="1" y1="0.459" x2="0" y2="0.461" gradientUnits="objectBoundingBox"><stop offset="0" stop-color="#00c195"/><stop offset="1" stop-color="#b1ffed"/></linearGradient><linearGradient id="b" x1="0" y1="0.459" x2="1" y2="0.461" xlink:href="#a"/></defs><g transform="translate(-390 -3578)"><path class="a" d="M285,0s-4.688,210.354-100.024,178.289S0,200,0,200V0Z" transform="translate(390 3578)"/><path class="b" d="M0,0S4.688,187.354,100.024,155.289,285,177,285,177V0Z" transform="translate(390 3578)"/><path class="b" d="M0,0S4.688,147.354,100.024,115.289,285,137,285,137V0Z" transform="translate(390 3578)"/><path class="b" d="M0,0S4.688,107.354,100.024,75.289,285,97,285,97V0Z" transform="translate(390 3578)"/></g></svg>