<svg xmlns="http://www.w3.org/2000/svg" width="547" height="636" viewBox="0 0 547 636">
  <g id="Contact-us-amico" transform="translate(-52.95 -31.334)">
    <g id="freepik--Floor--inject-21" transform="translate(52.95 356.368)">
      <ellipse id="Ellipse_35" data-name="Ellipse 35" cx="273.5" cy="155.483" rx="273.5" ry="155.483" fill="#f5f5f5"/>
    </g>
    <g id="freepik--Shadows--inject-21" transform="translate(85.563 451.416)">
      <path id="Path_543" data-name="Path 543" d="M390.871,491.112,186.566,373.145a11.806,11.806,0,0,1,0-20.46l20.154-12.709a22.918,22.918,0,0,1,22.877,0L433.93,457.957a11.806,11.806,0,0,1,0,20.46l-20.154,12.7A22.863,22.863,0,0,1,390.871,491.112Z" transform="translate(-35.889 -332.643)" fill="#e0e0e0"/>
      <ellipse id="Ellipse_36" data-name="Ellipse 36" cx="44.336" cy="25.46" rx="44.336" ry="25.46" fill="#e6e6e6"/>
    </g>
    <g id="freepik--Plants--inject-21" transform="translate(504.809 401.669)">
      <path id="Path_544" data-name="Path 544" d="M386.341,404.533l19.446,11.181s-9.931-31.21-4.639-62.671c2-11.89,6.292-17.793,7.792-20.974s13.126-22.835,2.778-31.836-34.419,9.1-33.113,57.532a187.836,187.836,0,0,0,7.737,46.767Z" transform="translate(-378.553 -298.006)" fill="#44d7b6"/>
      <path id="Path_545" data-name="Path 545" d="M386.341,404.533l19.446,11.181s-9.931-31.21-4.639-62.671c2-11.89,6.292-17.793,7.792-20.974s13.126-22.835,2.778-31.836-34.419,9.1-33.113,57.532a187.836,187.836,0,0,0,7.737,46.767Z" transform="translate(-378.553 -298.006)" opacity="0.5"/>
      <path id="Path_546" data-name="Path 546" d="M392.889,408.16a.681.681,0,0,1-.653-.445c-.069-.208-7.5-20.515-7.264-53.156s17.39-50.365,17.557-50.531a.7.7,0,1,1,.986.986c-.167.167-16.918,17.362-17.154,49.559s7.1,52.476,7.181,52.67a.7.7,0,0,1-.417.889A.652.652,0,0,1,392.889,408.16Z" transform="translate(-376.059 -295.744)" fill="#fff"/>
      <path id="Path_547" data-name="Path 547" d="M392.256,399.583l26.585,15.279a12.793,12.793,0,0,0,16.973-3.653,13.89,13.89,0,0,0,2.1-9.237c-1.278-13.807-7.278-16.987.069-23.141s9.265-6.584,8.848-12.5-4.459-8.5-6.375-10.834-7.223-7.223-3.611-14.445,8.542-14.209,1.07-17.4c-4.459-1.917-11.89.639-16.779,5.945s-8.917,9.126-13.6,10.4-14.432,1.486-14.015,9.556,2.556,10.834.639,14.432C390.548,370.706,374.838,374.526,392.256,399.583Z" transform="translate(-376.357 -288.279)" fill="#44d7b6"/>
      <path id="Path_548" data-name="Path 548" d="M399.7,406.65a.722.722,0,0,1-.694-.639c0-.472-4.084-48.142,28.7-79.866a.694.694,0,0,1,.958,1c-32.308,31.266-28.308,78.269-28.266,78.741a.7.7,0,0,1-.625.75Z" transform="translate(-370.661 -287.123)" fill="#fff"/>
      <path id="Path_549" data-name="Path 549" d="M406.34,360.395a.694.694,0,0,1-.695-.639A27.279,27.279,0,0,0,395.6,340.685a.695.695,0,0,1-.167-.972.681.681,0,0,1,.958-.167,28.293,28.293,0,0,1,10.64,20.126.708.708,0,0,1-.639.764Z" transform="translate(-372.036 -281.898)" fill="#fff"/>
      <path id="Path_550" data-name="Path 550" d="M401.815,362.818a.694.694,0,0,1-.458-.167.708.708,0,0,1-.069-.986c.333-.389,8.542-9.445,27.78-7.042a.694.694,0,0,1,.6.778.708.708,0,0,1-.778.611c-18.473-2.32-26.488,6.487-26.571,6.57a.708.708,0,0,1-.5.236Z" transform="translate(-369.775 -276.141)" fill="#fff"/>
    </g>
    <g id="freepik--Device--inject-21" transform="translate(231.448 31.334)">
      <path id="Path_551" data-name="Path 551" d="M384.269,592.4,204.59,488.677c-12.681-7.319-22.96-26.956-22.96-43.857V60.137c0-16.9,10.278-24.664,22.96-17.345L384.269,146.517c12.681,7.319,22.96,26.956,22.96,43.857V575.057C407.229,591.944,396.95,599.721,384.269,592.4Z" transform="translate(-181.63 -27.948)" fill="#677592"/>
      <path id="Path_552" data-name="Path 552" d="M402.782,137.8,223.09,34.078c-5.417-3.125-10.39-3.486-14.32-1.569h0a11.736,11.736,0,0,0-1.389.819L187.24,45.036c4.056-2.43,9.362-2.25,15.182,1.111L382.1,149.873c12.681,7.319,22.96,26.956,22.96,43.857V578.414c0,8.944-2.875,15.276-7.459,18.276l19.876-11.568h0c5.07-2.694,8.334-9.291,8.334-18.748V181.689C425.812,164.76,415.464,145.123,402.782,137.8Z" transform="translate(-179.448 -31.334)" fill="#303958"/>
      <path id="Path_553" data-name="Path 553" d="M346.139,151.642V536.391c0,8.945-2.875,15.279-7.459,18.279l19.89-11.57h0c5.07-2.695,8.334-9.292,8.334-18.751V139.6l-20.7,12.015Z" transform="translate(-120.54 10.687)" fill="#263238"/>
      <path id="Path_554" data-name="Path 554" d="M364.746,161.09l-20.7,11.945v9.334l20.7-11.959Z" transform="translate(-118.451 19.109)" fill="#303958"/>
      <path id="Path_555" data-name="Path 555" d="M353.358,214.017h0c-1.847,1.07-3.347-.069-3.347-2.528V191.419a8.028,8.028,0,0,1,3.347-6.4h0c1.847-1.07,3.347,0,3.347,2.528v20.071A8.028,8.028,0,0,1,353.358,214.017Z" transform="translate(-116.133 28.249)" fill="#303958"/>
      <path id="Path_556" data-name="Path 556" d="M350.728,211.906V191.779a8.028,8.028,0,0,1,3.347-6.4,2.139,2.139,0,0,1,2.111-.194h0l-2.514-1.292h0a2.167,2.167,0,0,0-2.167.167,8.056,8.056,0,0,0-3.361,6.4v20.057a3.014,3.014,0,0,0,1.139,2.681h0l2.625,1.389h0a2.889,2.889,0,0,1-1.181-2.681Z" transform="translate(-116.865 27.888)" fill="#677592"/>
      <path id="Path_557" data-name="Path 557" d="M353.358,248.987h0c-1.847,1.07-3.347,0-3.347-2.528V226.389a8.042,8.042,0,0,1,3.347-6.4h0c1.847-1.07,3.347,0,3.347,2.542v20.057A8,8,0,0,1,353.358,248.987Z" transform="translate(-116.133 41.843)" fill="#303958"/>
      <path id="Path_558" data-name="Path 558" d="M350.728,246.827V226.756a8.042,8.042,0,0,1,3.347-6.4,2.181,2.181,0,0,1,2.111-.194h0l-2.514-1.306h0a2.1,2.1,0,0,0-2.167.167,8.014,8.014,0,0,0-3.361,6.4v20.113a3,3,0,0,0,1.139,2.681h0l2.625,1.389h0a2.875,2.875,0,0,1-1.181-2.778Z" transform="translate(-116.865 41.475)" fill="#677592"/>
      <path id="Path_559" data-name="Path 559" d="M374.494,153.2,197.926,51.242a4.875,4.875,0,0,0-7.306,4.166v385.3c0,12.86,9.126,28.65,20.265,35.079l172.234,99.475a5.376,5.376,0,0,0,8.056-4.652V182.13C391.245,171.52,383.716,158.508,374.494,153.2Z" transform="translate(-178.133 -23.842)" fill="#ba68c8"/>
      <path id="Path_560" data-name="Path 560" d="M374.494,153.2,197.926,51.242a4.875,4.875,0,0,0-7.306,4.166v385.3c0,12.86,9.126,28.65,20.265,35.079l172.234,99.475a5.376,5.376,0,0,0,8.056-4.652V182.13C391.245,171.52,383.716,158.508,374.494,153.2Z" transform="translate(-178.133 -23.842)" fill="#fff" opacity="0.9"/>
      <path id="Path_561" data-name="Path 561" d="M233.9,70.23l2.736,11.515L295.168,115.5l10.112-5.389Z" transform="translate(-161.298 -16.203)" fill="#303958"/>
      <path id="Path_562" data-name="Path 562" d="M247.959,79.806c0,1.917-1.389,2.681-3,1.736A6.639,6.639,0,0,1,242,76.347c0-1.9,1.389-2.681,3-1.722A6.612,6.612,0,0,1,247.959,79.806Z" transform="translate(-158.147 -14.654)" fill="#263238"/>
      <path id="Path_563" data-name="Path 563" d="M283.567,101.5a1.958,1.958,0,0,1-.917-.236L252.759,84.6a1.875,1.875,0,0,1,1.82-3.278l29.9,16.668a1.875,1.875,0,0,1-.917,3.514Z" transform="translate(-154.322 -11.973)" fill="#263238"/>
      <path id="Path_564" data-name="Path 564" d="M219.6,110.526c-1.82-1.056-3.139-.139-3.139,2.181a7.042,7.042,0,0,0,3.139,5.861,3.306,3.306,0,0,0,3.431,0l2.9,5.25a6.292,6.292,0,0,1-6.6-.319,16.82,16.82,0,0,1-8.028-13.668c0-5.153,3.459-6.945,8.223-4.167a18.807,18.807,0,0,1,6.4,6.945l-2.9,2.306A10.237,10.237,0,0,0,219.6,110.526Z" transform="translate(-170.085 -2.944)" fill="#73a1c7"/>
      <path id="Path_565" data-name="Path 565" d="M238.538,125.587c0,5.195-3.514,6.945-8.334,4.167a17.154,17.154,0,0,1-8.334-13.89c0-5.195,3.514-6.945,8.334-4.167a17.057,17.057,0,0,1,8.334,13.89Zm-11.515-6.625a7.528,7.528,0,0,0,3.25,6.042c1.722,1,3.111,0,3.111-2.361a7.264,7.264,0,0,0-3.111-5.931c-1.75-1.014-3.25-.153-3.25,2.25Z" transform="translate(-165.977 -0.602)" fill="#73a1c7"/>
      <path id="Path_566" data-name="Path 566" d="M239.067,118.037l6,12.5v-9l4.542,2.625v17.515l-4.167-2.417-5.973-12.39v8.945l-4.57-2.639V115.62Z" transform="translate(-160.909 1.432)" fill="#73a1c7"/>
      <path id="Path_567" data-name="Path 567" d="M260,130.116V134.7l-4.334-2.5v12.945l-5.014-2.9V129.3l-4.306-2.486v-4.57Z" transform="translate(-156.455 4.006)" fill="#73a1c7"/>
      <path id="Path_568" data-name="Path 568" d="M266.472,147.867l-5.695-3.292L260,146.6l-5.139-2.972,6.4-13.82,5.153,2.972,6.167,21.085-5.348-3.084Zm-1.236-4.861-1.556-5.987-1.6,4.167Z" transform="translate(-153.145 6.949)" fill="#73a1c7"/>
      <path id="Path_569" data-name="Path 569" d="M275.672,142.9c-1.82-1.042-3.139-.139-3.139,2.195a7.07,7.07,0,0,0,3.139,5.862,3.361,3.361,0,0,0,3.445,0l2.9,5.25a6.375,6.375,0,0,1-6.612-.319A16.821,16.821,0,0,1,267.38,142.2c0-5.153,3.472-6.945,8.223-4.167a19.112,19.112,0,0,1,6.417,6.945l-2.9,2.292A10.458,10.458,0,0,0,275.672,142.9Z" transform="translate(-148.275 9.64)" fill="#73a1c7"/>
      <path id="Path_570" data-name="Path 570" d="M291.6,148.358v4.57l-4.334-2.5v12.987l-5.014-2.9V147.566l-4.306-2.486v-4.57Z" transform="translate(-144.163 11.108)" fill="#73a1c7"/>
      <path id="Path_571" data-name="Path 571" d="M300.512,166.456c1.236.708,2.181.153,2.181-1.583v-10.1l5.028,2.889v10.1c0,4.653-2.778,6.042-7.223,3.5a14.307,14.307,0,0,1-7.348-11.9v-10.1l5.028,2.9v10.1a5.153,5.153,0,0,0,2.334,4.195Z" transform="translate(-138.251 14.51)" fill="#73a1c7"/>
      <path id="Path_572" data-name="Path 572" d="M311.446,163.207c-.569-.319-.931-.333-.931.194,0,2.195,7.848,5.361,7.848,11.709,0,3.889-2.959,3.9-6.375,1.931a25.376,25.376,0,0,1-7.6-7.181l1.861-3.278a22.336,22.336,0,0,0,5.778,6.056c.736.431,1.208.431,1.208-.194,0-2.278-7.862-5.306-7.862-11.459,0-3.5,2.556-4.167,6.5-1.945a24.2,24.2,0,0,1,6.6,5.875l-1.82,3.361a27.35,27.35,0,0,0-5.209-5.07Z" transform="translate(-133.878 17.812)" fill="#73a1c7"/>
    </g>
    <g id="freepik--speech-bubble--inject-21" transform="translate(192.464 167.009)">
      <path id="Path_573" data-name="Path 573" d="M216.833,187.242a35.683,35.683,0,1,0-9.362,8.1l17.39,7.556Z" transform="translate(-153.477 -129.03)" fill="#f8cb5c"/>
      <path id="Path_574" data-name="Path 574" d="M216.833,187.242a35.683,35.683,0,1,0-9.362,8.1l17.39,7.556Z" transform="translate(-153.477 -129.03)" opacity="0.4"/>
      <path id="Path_575" data-name="Path 575" d="M171.739,154.779c0-.542-.389-.847-1.1-.847a7.945,7.945,0,0,0-4.389,2.07l-1.972-3.834a12.612,12.612,0,0,1,7.181-2.528c3.334,0,5.862,1.75,5.862,4.361,0,1.861-1.389,3.653-3.167,5.445l-2.486,2.459h5.875v4.084H164.919v-3.347l5.625-5.82A3.792,3.792,0,0,0,171.739,154.779Z" transform="translate(-149.275 -121.013)" fill="#fff"/>
      <path id="Path_576" data-name="Path 576" d="M183.789,149.81l-3.834,9.2h1.57v-3.1h4.834v3.1h1.833V162.8h-1.833v3.125h-4.834V162.8H174.65v-3.445l4.167-9.542Z" transform="translate(-145.242 -120.946)" fill="#fff"/>
      <path id="Path_577" data-name="Path 577" d="M198.913,158.164v8.014h-5.167v-6.528a1.5,1.5,0,0,0-1.486-1.708c-1.014,0-1.653.792-1.653,2.014v6.223H185.44V149.15h5.167v6.264a4.509,4.509,0,0,1,8.306,2.75Z" transform="translate(-141.045 -121.203)" fill="#fff"/>
    </g>
    <g id="freepik--Character--inject-21" transform="translate(211.619 222.146)">
      <path id="Path_578" data-name="Path 578" d="M356.988,275.723V448.3a11.112,11.112,0,0,1-16.668,9.639l-92.951-53.67-16.473-9.5a37.433,37.433,0,0,1-18.7-32.322V189.857a11.112,11.112,0,0,1,16.668-9.64L338.32,243.4a37.322,37.322,0,0,1,18.668,32.322Z" transform="translate(-149.86 -164.864)" fill="#ff8aac"/>
      <path id="Path_579" data-name="Path 579" d="M356.988,275.723V448.3a11.112,11.112,0,0,1-16.668,9.639l-92.951-53.67-16.473-9.5a37.433,37.433,0,0,1-18.7-32.322V189.857a11.112,11.112,0,0,1,16.668-9.64L338.32,243.4a37.322,37.322,0,0,1,18.668,32.322Z" transform="translate(-149.86 -164.864)" fill="#fff" opacity="0.5"/>
      <path id="Path_580" data-name="Path 580" d="M293.6,322.08s17.4,28.863,4.834,61.407L237.49,348.512Z" transform="translate(-140.022 -109.103)" fill="#263238"/>
      <circle id="Ellipse_37" data-name="Ellipse 37" cx="19.515" cy="19.515" r="19.515" transform="translate(140.216 97.899) rotate(-82.98)" fill="#263238"/>
      <path id="Path_581" data-name="Path 581" d="M284,190.125s5.986-9.723,7.82-9.014-1.195,9.973-1.195,9.973,9.056,1.889,7.376,4.167-12.751,1.736-12.751,1.736Z" transform="translate(-121.931 -163.952)" fill="#263238"/>
      <path id="Path_582" data-name="Path 582" d="M312.667,219.237c-4.167,31.308-30.558,31.308-30.558,31.308L226.828,226.21s-4.167-3.653-5.445-12.042a36.682,36.682,0,0,1,0-10.362v-.1c1.764-13.168,11.612-27.321,33.058-31.669a70.271,70.271,0,0,1,14.279-1.389,65.034,65.034,0,0,1,6.945.347c16.668,1.639,28.349,9.417,33.919,21.515a38.9,38.9,0,0,1,2.778,8.542,53.92,53.92,0,0,1,.306,18.182Z" transform="translate(-146.431 -168.007)" fill="#263238"/>
      <path id="Path_583" data-name="Path 583" d="M199.062,249.231s-19.626-.681-27.182,18.446c0,0,8.334,5.625,19.265,0S199.062,249.231,199.062,249.231Z" transform="translate(-165.544 -137.441)" fill="#f4fafe"/>
      <path id="Path_584" data-name="Path 584" d="M199.062,249.231s-19.626-.681-27.182,18.446c0,0,8.334,5.625,19.265,0S199.062,249.231,199.062,249.231Z" transform="translate(-165.544 -137.441)" opacity="0.5"/>
      <path id="Path_585" data-name="Path 585" d="M200.281,264.219s-5.556-24.141-8.487-24.432-3.5,7.362-3.264,11.681l-6.945-14.945a3.764,3.764,0,0,0-5.223-1.681c-6.945,3.82-19.126,15.432,6.556,44.142Z" transform="translate(-167.318 -143.22)" fill="#945959"/>
      <path id="Path_586" data-name="Path 586" d="M269.642,244.05l-4.167-.542a23.862,23.862,0,0,0-22.224,9.334l-24.793,33-19.446-34.308s-2.333,23.335-27.182,18.446l26.682,44.906a20.529,20.529,0,0,0,33.586,2.458l22.835-28.071Z" transform="translate(-165.563 -139.747)" fill="#f4fafe"/>
      <path id="Path_587" data-name="Path 587" d="M305.087,321.295c-5.556,14.084-6.167,16.834-2.778,23.877a90.1,90.1,0,0,1,5.556,16.168S282.113,390.2,245.458,379.4l-16.473-9.5a36.889,36.889,0,0,1-9.14-7.445l5.014-37.392a13.057,13.057,0,0,0-.583-5.848l-5.264-15.431a42.169,42.169,0,0,1,10.445-43.767l17.7-17.293,46.475,5.945,6.945,1.986a19.654,19.654,0,0,1,14,21.626C312.3,288.668,308.573,312.447,305.087,321.295Z" transform="translate(-148.088 -139.973)" fill="#f4fafe"/>
      <path id="Path_588" data-name="Path 588" d="M305.087,321.295c-5.556,14.084-6.167,16.834-2.778,23.877a90.1,90.1,0,0,1,5.556,16.168S282.113,390.2,245.458,379.4l-16.473-9.5a36.889,36.889,0,0,1-9.14-7.445l5.014-37.392a13.057,13.057,0,0,0-.583-5.848l-5.264-15.431a42.169,42.169,0,0,1,10.445-43.767l17.7-17.293,46.475,5.945,6.945,1.986a19.654,19.654,0,0,1,14,21.626C312.3,288.668,308.573,312.447,305.087,321.295Z" transform="translate(-148.088 -139.973)" opacity="0.5"/>
      <path id="Path_589" data-name="Path 589" d="M272.365,281.763l-9.306-7.931a7.459,7.459,0,0,0-7.264-1.389l-11.251,3.875-1.514-6.306a7.473,7.473,0,0,0-9.334-5.431l-4.875,1.389,8.251-15.807A29.6,29.6,0,0,1,249,237.968l3.236-1.778,26.738,1.389s9.959,4.167,9.959,13.543l-16.571,30.558" transform="translate(-143.395 -142.513)" fill="#f4fafe"/>
      <path id="Path_590" data-name="Path 590" d="M272.517,258.5l-26.807,20.89V212.87h26.807Z" transform="translate(-136.825 -151.584)" fill="#945959"/>
      <path id="Path_591" data-name="Path 591" d="M248.293,241.77,240.14,274.2l34.433-26.946Z" transform="translate(-138.992 -140.342)" fill="#945959"/>
      <path id="Path_592" data-name="Path 592" d="M245.714,248.192a46.92,46.92,0,0,0,26.793-25.5v-9.82H245.7Z" transform="translate(-136.829 -151.584)" fill="#703838"/>
      <path id="Path_593" data-name="Path 593" d="M259.713,177.38c-10.167,0-31.78,5.667-34.28,32.28s-.083,47.225,13.64,49.226,45.614-7.959,49.892-42.406S269.617,177.38,259.713,177.38Z" transform="translate(-145.05 -165.389)" fill="#945959"/>
      <path id="Path_594" data-name="Path 594" d="M240.925,208.73v15.682l-9.2-2.82Z" transform="translate(-142.263 -153.194)" fill="#703838"/>
      <circle id="Ellipse_38" data-name="Ellipse 38" cx="3.195" cy="3.195" r="3.195" transform="translate(105.69 55.05)" fill="#263238"/>
      <path id="Path_595" data-name="Path 595" d="M234.659,209.979a3.195,3.195,0,1,1-.931-2.268A3.195,3.195,0,0,1,234.659,209.979Z" transform="translate(-143.609 -153.957)" fill="#263238"/>
      <path id="Path_596" data-name="Path 596" d="M227.808,205.731l6.25-3.709s-2.389-2.486-4.778-1S227.808,205.731,227.808,205.731Z" transform="translate(-143.856 -156.376)" fill="#263238"/>
      <path id="Path_597" data-name="Path 597" d="M235.24,225.246a13.542,13.542,0,0,0,8.6-2.306s.6,4.542-3.209,5.4S235.24,225.246,235.24,225.246Z" transform="translate(-140.898 -147.667)" fill="#703838"/>
      <path id="Path_598" data-name="Path 598" d="M231.31,187.809s3.82,36.739,53.781,37.891c0,0,15.1-36.516-14.737-48.378S231.31,187.809,231.31,187.809Z" transform="translate(-142.426 -166.761)" fill="#263238"/>
      <path id="Path_599" data-name="Path 599" d="M288.489,208.465h0l-6.139-3.556h0c-2.333-1.389-5.556-1.195-9.126.861-7.084,4.084-12.834,14.043-12.834,22.224,0,4.1,1.389,6.945,3.778,8.334h0L270.2,239.8l.347.194.208.125h0c2.278,1.111,5.32.847,8.667-1.083,7.084-4.167,12.834-14.043,12.834-22.224C292.212,212.674,290.781,209.813,288.489,208.465Z" transform="translate(-131.115 -155.027)" fill="#d8e3eb"/>
      <ellipse id="Ellipse_39" data-name="Ellipse 39" cx="18.14" cy="10.473" rx="18.14" ry="10.473" transform="translate(130.117 79.595) rotate(-60)" fill="#d8e3eb"/>
      <ellipse id="Ellipse_40" data-name="Ellipse 40" cx="18.14" cy="10.473" rx="18.14" ry="10.473" transform="translate(130.117 79.595) rotate(-60)" opacity="0.5"/>
      <path id="Path_600" data-name="Path 600" d="M287.762,213.621h0l-4.167-2.431h0c-1.583-.944-3.792-.82-6.237.583a19.446,19.446,0,0,0-8.778,15.209c0,2.778.986,4.764,2.583,5.681h0l4.167,2.375a1.388,1.388,0,0,0,.236.139l.139.083h0a6.389,6.389,0,0,0,5.945-.75,19.446,19.446,0,0,0,8.778-15.2C290.318,216.5,289.345,214.538,287.762,213.621Z" transform="translate(-127.929 -152.474)" fill="#d8e3eb"/>
      <path id="Path_601" data-name="Path 601" d="M289.151,218.607a19.446,19.446,0,0,1-8.778,15.2c-4.861,2.778-8.792.528-8.792-5.07a19.363,19.363,0,0,1,8.792-15.2C285.22,210.731,289.151,213,289.151,218.607Z" transform="translate(-126.762 -151.792)" fill="#d8e3eb"/>
      <path id="Path_602" data-name="Path 602" d="M289.151,218.607a19.446,19.446,0,0,1-8.778,15.2c-4.861,2.778-8.792.528-8.792-5.07a19.363,19.363,0,0,1,8.792-15.2C285.22,210.731,289.151,213,289.151,218.607Z" transform="translate(-126.762 -151.792)" opacity="0.3"/>
      <path id="Path_603" data-name="Path 603" d="M275.378,173.571a23.113,23.113,0,0,0-13.89-4.82h-1.236a74.854,74.854,0,0,0-15.182,1.389h0v2.583h2.584a34.322,34.322,0,0,1,33.155,34.35V218a3.084,3.084,0,0,0,3.4,3.07h.319l2.778-.861h0a2.584,2.584,0,0,1-.569.111,3.4,3.4,0,0,0,2.945-3.445V206.74C289.656,188.391,281.725,178.53,275.378,173.571Z" transform="translate(-137.074 -168.747)" fill="#d8e3eb"/>
      <path id="Path_604" data-name="Path 604" d="M257.854,239.088a7.988,7.988,0,0,1-3.32-.723l-8.681-4.014a1.042,1.042,0,1,1,.861-1.889l8.681,4.014a5.861,5.861,0,0,0,6.695-1.25l8.334-8.612a1.042,1.042,0,0,1,1.472,0,1.056,1.056,0,0,1,0,1.472l-8.334,8.612a7.9,7.9,0,0,1-5.709,2.389Z" transform="translate(-137.038 -146.356)" fill="#677592"/>
      <path id="Path_605" data-name="Path 605" d="M257.854,239.088a7.988,7.988,0,0,1-3.32-.723l-8.681-4.014a1.042,1.042,0,1,1,.861-1.889l8.681,4.014a5.861,5.861,0,0,0,6.695-1.25l8.334-8.612a1.042,1.042,0,0,1,1.472,0,1.056,1.056,0,0,1,0,1.472l-8.334,8.612a7.9,7.9,0,0,1-5.709,2.389Z" transform="translate(-137.038 -146.356)" opacity="0.5"/>
      <path id="Path_606" data-name="Path 606" d="M249.572,231.136a4.056,4.056,0,1,1-4.056-4.056A4.056,4.056,0,0,1,249.572,231.136Z" transform="translate(-138.478 -146.056)" fill="#d8e3eb"/>
      <path id="Path_607" data-name="Path 607" d="M249.572,231.136a4.056,4.056,0,1,1-4.056-4.056A4.056,4.056,0,0,1,249.572,231.136Z" transform="translate(-138.478 -146.056)" opacity="0.5"/>
      <path id="Path_608" data-name="Path 608" d="M289.652,206.724v10.14a3.4,3.4,0,0,1-2.945,3.445,3.278,3.278,0,0,1-3.625-3.264v-10.32a36.517,36.517,0,0,0-38-36.544,74.851,74.851,0,0,1,15.182-1.389h1.208a23.112,23.112,0,0,1,13.89,4.82C281.721,178.514,289.652,188.376,289.652,206.724Z" transform="translate(-137.07 -168.731)" fill="#d8e3eb"/>
      <path id="Path_609" data-name="Path 609" d="M289.652,206.724v10.14a3.4,3.4,0,0,1-2.945,3.445,3.278,3.278,0,0,1-3.625-3.264v-10.32a36.517,36.517,0,0,0-38-36.544,74.851,74.851,0,0,1,15.182-1.389h1.208a23.112,23.112,0,0,1,13.89,4.82C281.721,178.514,289.652,188.376,289.652,206.724Z" transform="translate(-137.07 -168.731)" opacity="0.5"/>
      <path id="Path_610" data-name="Path 610" d="M266.172,333.853s-6.723,18.515,17.307,26.849c0,0,7.848-11.529,0-20.96S266.172,333.853,266.172,333.853Z" transform="translate(-129.202 -104.777)" fill="#f4fafe"/>
      <path id="Path_611" data-name="Path 611" d="M266.172,333.853s-6.723,18.515,17.307,26.849c0,0,7.848-11.529,0-20.96S266.172,333.853,266.172,333.853Z" transform="translate(-129.202 -104.777)" opacity="0.7"/>
      <path id="Path_612" data-name="Path 612" d="M279.187,334.28s-23.474,8.6-23.349,11.931,9.973,1.056,9.973,1.056l-3.6,2.361a22,22,0,0,0-8.4,10.251h0a4.056,4.056,0,0,0,1.861,5.07l8.917,4.722a4.264,4.264,0,0,0,5.82-1.875h0a8.334,8.334,0,0,1,4.875-4.167c4.848-1.611,13.89-6.251,17.515-18.946Z" transform="translate(-133.785 -104.357)" fill="#945959"/>
      <path id="Path_613" data-name="Path 613" d="M281.4,248.41s-12.5,6.945-5.862,28.03,19.1,53.8,19.1,53.8l-28.71,36.6a21.974,21.974,0,0,1,15.376,9.223,19.446,19.446,0,0,1,1.931,17.626l35.641-45.836a32.294,32.294,0,0,0,5.056-30.321l-15.279-44.614a37.336,37.336,0,0,0-23.613-23.349Z" transform="translate(-128.96 -137.759)" fill="#f4fafe"/>
    </g>
    <g id="freepik--Icons--inject-21" transform="translate(78.757 66.156)">
      <path id="Path_614" data-name="Path 614" d="M146.007,167.919l-55.24-31.947a4.653,4.653,0,0,0-4.4-.486h0a2.669,2.669,0,0,0-.431.25l-12.015,7.042H74c-1.514.861-2.472,2.861-2.472,5.723v61.449c0,5.195,3.153,11.237,7.056,13.487l55.24,31.947a4.417,4.417,0,0,0,4.861.208.249.249,0,0,0-.1.069l11.931-6.945h0c1.556-.833,2.542-2.861,2.542-5.764V181.406C153.063,176.211,149.966,170.169,146.007,167.919Z" transform="translate(-71.53 -25.776)" fill="#ff4c60"/>
      <path id="Path_615" data-name="Path 615" d="M150.422,173.739a14.057,14.057,0,0,0-5.084-5.82L90.1,135.972a4.653,4.653,0,0,0-4.4-.486h0a2.67,2.67,0,0,0-.431.25L73.25,142.778a4.5,4.5,0,0,1,4.667.347l55.24,31.947a14.306,14.306,0,0,1,5.209,6.084h0Z" transform="translate(-70.861 -25.776)" fill="#ff4c60"/>
      <path id="Path_616" data-name="Path 616" d="M122.1,239.171c0,2.778-.889,4.709-2.292,5.556l11.931-6.945h0c1.556-.833,2.542-2.861,2.542-5.764V170.6a17.377,17.377,0,0,0-1.972-7.667l-12.056,7.417h0a17.349,17.349,0,0,1,1.847,7.4Z" transform="translate(-52.75 -14.968)" fill="#ff4c60"/>
      <path id="Path_617" data-name="Path 617" d="M150.422,173.739a14.057,14.057,0,0,0-5.084-5.82L90.1,135.972a4.653,4.653,0,0,0-4.4-.486h0a2.67,2.67,0,0,0-.431.25L73.25,142.778a4.5,4.5,0,0,1,4.667.347l55.24,31.947a14.306,14.306,0,0,1,5.209,6.084h0Z" transform="translate(-70.861 -25.776)" opacity="0.3"/>
      <path id="Path_618" data-name="Path 618" d="M122.1,239.171c0,2.778-.889,4.709-2.292,5.556l11.931-6.945h0c1.556-.833,2.542-2.861,2.542-5.764V170.6a17.377,17.377,0,0,0-1.972-7.667l-12.056,7.417h0a17.349,17.349,0,0,1,1.847,7.4Z" transform="translate(-52.75 -14.968)" opacity="0.6"/>
      <path id="Path_619" data-name="Path 619" d="M120.108,195.481c0,7.959-3.153,10.667-7.876,7.931a11.112,11.112,0,0,1-5.278-6.945c-1.389,1.708-3.542,1.82-6.57.069-4.973-2.875-8.889-9.723-8.889-16.376s3.875-8.945,8.889-6.056a15.279,15.279,0,0,1,5.917,6.348v-2.625l5.236,3.028v14.39a4.167,4.167,0,0,0,1.847,3.9c1.764,1.028,2.847-.708,2.847-5.862,0-9.015-5.778-18.571-14.32-23.5s-14.307-1.5-14.307,7.778a29.169,29.169,0,0,0,14.154,24.349,16.5,16.5,0,0,0,7.584,2.417l1.236,4.792a19.738,19.738,0,0,1-8.82-2.9c-11.112-6.431-18.46-19.376-18.46-31.1s7.417-15.973,18.612-9.5C112.733,171.854,120.108,184.341,120.108,195.481ZM106.385,188.8a10.2,10.2,0,0,0-4.82-8.82c-2.778-1.625-4.764-.486-4.764,3.292a10.264,10.264,0,0,0,4.764,8.876c2.778,1.57,4.82.556,4.82-3.347Z" transform="translate(-66.952 -15.099)" fill="#ba68c8"/>
      <g id="Group_546" data-name="Group 546" transform="translate(16.348 147.492)" opacity="0.9">
        <path id="Path_620" data-name="Path 620" d="M120.108,195.481c0,7.959-3.153,10.667-7.876,7.931a11.112,11.112,0,0,1-5.278-6.945c-1.389,1.708-3.542,1.82-6.57.069-4.973-2.875-8.889-9.723-8.889-16.376s3.875-8.945,8.889-6.056a15.279,15.279,0,0,1,5.917,6.348v-2.625l5.236,3.028v14.39a4.167,4.167,0,0,0,1.847,3.9c1.764,1.028,2.847-.708,2.847-5.862,0-9.015-5.778-18.571-14.32-23.5s-14.307-1.5-14.307,7.778a29.169,29.169,0,0,0,14.154,24.349,16.5,16.5,0,0,0,7.584,2.417l1.236,4.792a19.738,19.738,0,0,1-8.82-2.9c-11.112-6.431-18.46-19.376-18.46-31.1s7.417-15.973,18.612-9.5C112.733,171.854,120.108,184.341,120.108,195.481ZM106.385,188.8a10.2,10.2,0,0,0-4.82-8.82c-2.778-1.625-4.764-.486-4.764,3.292a10.264,10.264,0,0,0,4.764,8.876c2.778,1.57,4.82.556,4.82-3.347Z" transform="translate(-83.3 -162.591)" fill="#fff"/>
      </g>
      <path id="Path_621" data-name="Path 621" d="M146.007,246.7l-55.24-31.947a4.6,4.6,0,0,0-4.4-.472h0a2.666,2.666,0,0,0-.431.25l-12.015,7.042H74c-1.514.861-2.472,2.861-2.472,5.709V288.7c0,5.209,3.153,11.237,7.056,13.487l55.24,31.947a4.389,4.389,0,0,0,4.861.208l-.1.083,11.931-7.014h0c1.556-.819,2.542-2.778,2.542-5.764V260.171C153.063,254.977,149.966,248.948,146.007,246.7Z" transform="translate(-71.53 4.868)" fill="#9292ff"/>
      <path id="Path_622" data-name="Path 622" d="M150.422,252.518a13.973,13.973,0,0,0-5.084-5.82L90.1,214.752a4.6,4.6,0,0,0-4.4-.472h0a2.663,2.663,0,0,0-.431.25L73.25,221.572a4.486,4.486,0,0,1,4.667.333l55.24,31.947a14.264,14.264,0,0,1,5.209,6.1h0Z" transform="translate(-70.861 4.868)" fill="#9292ff"/>
      <path id="Path_623" data-name="Path 623" d="M122.1,317.937c0,2.778-.889,4.709-2.292,5.625l11.931-7.014h0c1.556-.819,2.542-2.778,2.542-5.764V249.363a17.321,17.321,0,0,0-1.972-7.653l-12.056,7.417h0a17.293,17.293,0,0,1,1.847,7.389Z" transform="translate(-52.75 15.676)" fill="#9292ff"/>
      <path id="Path_624" data-name="Path 624" d="M150.422,252.518a13.973,13.973,0,0,0-5.084-5.82L90.1,214.752a4.6,4.6,0,0,0-4.4-.472h0a2.663,2.663,0,0,0-.431.25L73.25,221.572a4.486,4.486,0,0,1,4.667.333l55.24,31.947a14.264,14.264,0,0,1,5.209,6.1h0Z" transform="translate(-70.861 4.868)" opacity="0.3"/>
      <path id="Path_625" data-name="Path 625" d="M122.1,317.937c0,2.778-.889,4.709-2.292,5.625l11.931-7.014h0c1.556-.819,2.542-2.778,2.542-5.764V249.363a17.321,17.321,0,0,0-1.972-7.653l-12.056,7.417h0a17.293,17.293,0,0,1,1.847,7.389Z" transform="translate(-52.75 15.676)" opacity="0.6"/>
      <path id="Path_626" data-name="Path 626" d="M95.78,263.35,82.46,241.71v29.321Z" transform="translate(-67.278 15.676)" fill="#ba68c8"/>
      <path id="Path_627" data-name="Path 627" d="M100.96,263.534l13.293,23.015V257.27Z" transform="translate(-60.082 21.729)" fill="#ba68c8"/>
      <path id="Path_628" data-name="Path 628" d="M83.91,241l13.681,22.224a.877.877,0,0,1,.153.167.39.39,0,0,1,0,.167l4.07,6.612,3.445-1.625a.956.956,0,0,1,.181-.153,1.04,1.04,0,0,1,.444-.139l13.89-6.514Z" transform="translate(-66.714 15.4)" fill="#ba68c8"/>
      <path id="Path_629" data-name="Path 629" d="M105.831,263.942l-3.722,1.75a1.041,1.041,0,0,1-.458.1,1.111,1.111,0,0,1-.958-.528l-4.07-6.612L83.26,266.373l35.961,20.751Z" transform="translate(-66.967 22.266)" fill="#ba68c8"/>
      <g id="Group_547" data-name="Group 547" transform="translate(15.182 256.4)" opacity="0.9">
        <path id="Path_630" data-name="Path 630" d="M95.78,263.35,82.46,241.71v29.321Z" transform="translate(-82.46 -240.724)" fill="#fff"/>
        <path id="Path_631" data-name="Path 631" d="M100.96,263.534l13.293,23.015V257.27Z" transform="translate(-75.264 -234.671)" fill="#fff"/>
        <path id="Path_632" data-name="Path 632" d="M83.91,241l13.681,22.224a.877.877,0,0,1,.153.167.39.39,0,0,1,0,.167l4.07,6.612,3.445-1.625a.956.956,0,0,1,.181-.153,1.04,1.04,0,0,1,.444-.139l13.89-6.514Z" transform="translate(-81.896 -241)" fill="#fff"/>
        <path id="Path_633" data-name="Path 633" d="M105.831,263.942l-3.722,1.75a1.041,1.041,0,0,1-.458.1,1.111,1.111,0,0,1-.958-.528l-4.07-6.612L83.26,266.373l35.961,20.751Z" transform="translate(-82.149 -234.135)" fill="#fff"/>
      </g>
      <path id="Path_634" data-name="Path 634" d="M146.007,89.178,90.767,57.232a4.6,4.6,0,0,0-4.4-.472h0a2.669,2.669,0,0,0-.431.25L73.919,64.052H74c-1.514.847-2.472,2.861-2.472,5.709v61.421c0,5.195,3.153,11.237,7.056,13.487l55.24,31.947a4.389,4.389,0,0,0,4.861.208l-.1.069,11.931-6.945h0c1.556-.819,2.542-2.778,2.542-5.764V102.61C153.063,97.415,149.966,91.373,146.007,89.178Z" transform="translate(-71.53 -56.404)" fill="#ff8d41"/>
      <path id="Path_635" data-name="Path 635" d="M150.422,94.957a14.015,14.015,0,0,0-5.084-5.834L90.1,57.232a4.6,4.6,0,0,0-4.4-.472h0a2.668,2.668,0,0,0-.431.25L73.25,64.052a4.486,4.486,0,0,1,4.667.333l55.24,31.947a14.265,14.265,0,0,1,5.209,6.1h0Z" transform="translate(-70.861 -56.404)" fill="#ff8d41"/>
      <path id="Path_636" data-name="Path 636" d="M122.1,160.332c0,2.778-.889,4.709-2.292,5.556l11.931-6.945h0c1.556-.819,2.542-2.778,2.542-5.764V91.813a17.32,17.32,0,0,0-1.972-7.653l-12.056,7.417h0a17.293,17.293,0,0,1,1.847,7.389Z" transform="translate(-52.75 -45.608)" fill="#ff8d41"/>
      <path id="Path_637" data-name="Path 637" d="M150.422,94.957a14.015,14.015,0,0,0-5.084-5.834L90.1,57.232a4.6,4.6,0,0,0-4.4-.472h0a2.668,2.668,0,0,0-.431.25L73.25,64.052a4.486,4.486,0,0,1,4.667.333l55.24,31.947a14.265,14.265,0,0,1,5.209,6.1h0Z" transform="translate(-70.861 -56.404)" opacity="0.3"/>
      <path id="Path_638" data-name="Path 638" d="M122.1,160.332c0,2.778-.889,4.709-2.292,5.556l11.931-6.945h0c1.556-.819,2.542-2.778,2.542-5.764V91.813a17.32,17.32,0,0,0-1.972-7.653l-12.056,7.417h0a17.293,17.293,0,0,1,1.847,7.389Z" transform="translate(-52.75 -45.608)" opacity="0.6"/>
      <path id="Path_639" data-name="Path 639" d="M118.089,135.729c-2.125-3.5-4.264-6.945-6.389-10.473a5.445,5.445,0,0,0-3.347-2.778c-1.028-.208-2.056-.444-3.111-.75a1.917,1.917,0,0,1-.9-.778A87.812,87.812,0,0,1,96.1,102.06a1.042,1.042,0,0,1,.111-.847c.653-.653,1.389-1.25,2.056-1.833s1.014-1.931.528-3.681c-1.028-3.709-2.014-7.417-3.042-11.112a6.084,6.084,0,0,0-3.972-4.611,11.237,11.237,0,0,0-6.806.25c-.847.319-1.292,1.083-1.306,2.4.361,2.542.6,5.056,1.083,7.639q5.139,27.946,24.724,51.392a3.958,3.958,0,0,0,3.1,1.778,9.334,9.334,0,0,0,5.875-2.264C119.686,140.062,119.561,138.09,118.089,135.729Z" transform="translate(-66.808 -47.395)" fill="#ba68c8"/>
      <path id="Path_640" data-name="Path 640" d="M111.084,111.887a29.5,29.5,0,0,0-3.236-11.445,33.821,33.821,0,0,0-5.209-7.653c-.542-.611-1-.806-1.278-.347s0,1.111.528,1.708l.542.625a29.266,29.266,0,0,1,6.945,15.737,5.556,5.556,0,0,0,.125,1.264,3.376,3.376,0,0,0,.819,1.264c.292.208.625,0,.861,0C111.1,112.47,111.111,112.178,111.084,111.887Z" transform="translate(-59.969 -42.485)" fill="#ba68c8"/>
      <path id="Path_641" data-name="Path 641" d="M99.4,98.655a11.737,11.737,0,0,1,3.014,6.945,4.417,4.417,0,0,0,.431,1.125c.847.694,1.264.458,1.264-.417a15.279,15.279,0,0,0-3.9-8.9c-.528-.542-.958-.708-1.208-.25A1.389,1.389,0,0,0,99.4,98.655Z" transform="translate(-60.874 -40.657)" fill="#ba68c8"/>
      <g id="Group_548" data-name="Group 548" transform="translate(16.862 32.169)" opacity="0.9">
        <path id="Path_642" data-name="Path 642" d="M118.089,135.729c-2.125-3.5-4.264-6.945-6.389-10.473a5.445,5.445,0,0,0-3.347-2.778c-1.028-.208-2.056-.444-3.111-.75a1.917,1.917,0,0,1-.9-.778A87.812,87.812,0,0,1,96.1,102.06a1.042,1.042,0,0,1,.111-.847c.653-.653,1.389-1.25,2.056-1.833s1.014-1.931.528-3.681c-1.028-3.709-2.014-7.417-3.042-11.112a6.084,6.084,0,0,0-3.972-4.611,11.237,11.237,0,0,0-6.806.25c-.847.319-1.292,1.083-1.306,2.4.361,2.542.6,5.056,1.083,7.639q5.139,27.946,24.724,51.392a3.958,3.958,0,0,0,3.1,1.778,9.334,9.334,0,0,0,5.875-2.264C119.686,140.062,119.561,138.09,118.089,135.729Z" transform="translate(-83.67 -79.564)" fill="#fff"/>
        <path id="Path_643" data-name="Path 643" d="M111.084,111.887a29.5,29.5,0,0,0-3.236-11.445,33.821,33.821,0,0,0-5.209-7.653c-.542-.611-1-.806-1.278-.347s0,1.111.528,1.708l.542.625a29.266,29.266,0,0,1,6.945,15.737,5.556,5.556,0,0,0,.125,1.264,3.376,3.376,0,0,0,.819,1.264c.292.208.625,0,.861,0C111.1,112.47,111.111,112.178,111.084,111.887Z" transform="translate(-76.831 -74.654)" fill="#fff"/>
        <path id="Path_644" data-name="Path 644" d="M99.4,98.655a11.737,11.737,0,0,1,3.014,6.945,4.417,4.417,0,0,0,.431,1.125c.847.694,1.264.458,1.264-.417a15.279,15.279,0,0,0-3.9-8.9c-.528-.542-.958-.708-1.208-.25A1.389,1.389,0,0,0,99.4,98.655Z" transform="translate(-77.736 -72.826)" fill="#fff"/>
      </g>
    </g>
    <g id="freepik--Clouds--inject-21" transform="translate(430.23 54.976)">
      <path id="Path_645" data-name="Path 645" d="M330.888,55.474l13.015,7.4V56.2h0c.472-6.1,5.1-8.445,10.737-5.181a21.028,21.028,0,0,1,6.417,6.153c1.264-8.334,8.028-11.279,16.209-6.57,9.084,5.25,16.445,18.057,16.445,28.5v9.862a4.5,4.5,0,0,0,2.181,3.931l7.667,4.486A11.112,11.112,0,0,1,409,106.908a4.542,4.542,0,0,1-6.82,3.931l-71.1-41.1a12.5,12.5,0,0,1-6.223-10.765,4.028,4.028,0,0,1,6.028-3.5Z" transform="translate(-324.86 -48.355)" fill="#e6e6e6"/>
      <path id="Path_646" data-name="Path 646" d="M401.855,53.53l9.459,5.431V54.1h0c.347-4.431,3.709-6.139,7.806-3.764a15.278,15.278,0,0,1,4.667,4.459c.931-6.028,5.848-8.209,11.793-4.778,6.612,3.82,11.959,13.1,11.959,20.724V77.92A3.25,3.25,0,0,0,449.15,80.7l5.556,3.264a8.028,8.028,0,0,1,3.959,6.945,3.306,3.306,0,0,1-4.9,2.889L401.994,63.906a9.042,9.042,0,0,1-4.514-7.82,2.931,2.931,0,0,1,4.375-2.556Z" transform="translate(-296.612 -48.342)" fill="#e6e6e6"/>
    </g>
  </g>
</svg>
