<svg xmlns="http://www.w3.org/2000/svg" width="544" height="498" viewBox="0 0 544 498">
  <g id="Mobile_login-amico" data-name="Mobile login-amico" transform="translate(-711.884 -86.13)">
    <g id="Group_126" data-name="Group 126" transform="translate(596)">
      <g id="freepik--Floor--inject-26" transform="translate(503.824 509.75)">
        <path id="Path_432" data-name="Path 432" d="M96.4,309.166c30.474,14.523,79.879,14.527,110.353,0s30.469-38.071,0-52.594-79.879-14.523-110.353,0S65.936,294.643,96.4,309.166Z" transform="translate(-73.551 -245.68)" fill="#f5f5f5"/>
      </g>
      <g id="freepik--Shadow--inject-26" transform="translate(550.335 526.609)">
        <ellipse id="Ellipse_26" data-name="Ellipse 26" cx="39.441" cy="18.794" rx="39.441" ry="18.794" fill="#ebebeb"/>
      </g>
      <g id="freepik--Plants--inject-26" transform="translate(115.884 317.522)">
        <path id="Path_433" data-name="Path 433" d="M120,381.016l13.954-8.049a55.848,55.848,0,0,0,17.163-24.149c4.308-11.877,3.707-20.9.618-25.436-3.793-5.578-13.628-4.6-14.022,7.14C136.889,353.658,130.143,369.706,120,381.016Z" transform="translate(-82.613 -150.441)" fill="#44d7b6"/>
        <path id="Path_434" data-name="Path 434" d="M120,381.016l13.954-8.049a55.848,55.848,0,0,0,17.163-24.149c4.308-11.877,3.707-20.9.618-25.436-3.793-5.578-13.628-4.6-14.022,7.14C136.889,353.658,130.143,369.706,120,381.016Z" transform="translate(-82.613 -150.441)" opacity="0.2"/>
        <path id="Path_435" data-name="Path 435" d="M120.354,379.611a.858.858,0,0,1-.481-1.562c32.267-22.312,26.019-53.429,25.951-53.738a.877.877,0,1,1,1.716-.36c0,.326,6.591,32.507-26.637,55.505a.892.892,0,0,1-.549.154Z" transform="translate(-82.966 -148.178)" fill="#fff"/>
        <path id="Path_436" data-name="Path 436" d="M107.645,400.991s-4.857-3.947-3.69-9.3,4.308-9.2-1.064-16.1-6.865-16.1-.446-21.076c4.891-3.862,12.529,1.6,15.275-8.582,2.025-7.449,1.339-23.943,10.83-29.435S144,319.277,142.5,330.468c-1.3,10.006-3.158,19.635-1.716,22.312,2.78,5.149,7.535,4.445,7.312,13.851-.189,8.753-8.479,16-8.479,16Z" transform="translate(-98.216 -154.266)" fill="#44d7b6"/>
        <path id="Path_437" data-name="Path 437" d="M113.6,388.164a.875.875,0,0,1-.858-.755c-2.454-20.338,3.433-55.454,8.238-65.889a.858.858,0,0,1,1.2-.481.841.841,0,0,1,.412,1.133c-4.754,10.3-10.435,45.517-8.084,64.962a.858.858,0,0,1-.755.944Z" transform="translate(-88.225 -149.832)" fill="#fff"/>
        <path id="Path_438" data-name="Path 438" d="M117.038,357.136a.721.721,0,0,1-.378-.086c-5.956-2.9-9.731-13.25-9.886-13.73a.858.858,0,1,1,1.613-.584c0,.1,3.69,10.126,9.028,12.718a.858.858,0,0,1-.378,1.631Z" transform="translate(-92.129 -134.645)" fill="#fff"/>
        <path id="Path_439" data-name="Path 439" d="M113.026,362.481a.841.841,0,0,1-.789-.549.858.858,0,0,1,.463-1.116c10.023-4.016,16.271-15.945,16.339-16.082a.86.86,0,0,1,1.528.79c-.275.515-6.608,12.632-17.163,16.888a.737.737,0,0,1-.378.069Z" transform="translate(-88.219 -133.125)" fill="#fff"/>
        <path id="Path_440" data-name="Path 440" d="M320.286,332.208s-7.5-12.152-8.238-25.35,2.163-18.691,6.144-20.27,4.291,3.278,6.333,6.144,6.213,1.236,7.758-7.706,7.174-24.028,18.879-26.963c12.872-3.192,5.973,11.911,2.729,17.8s-5.75,13.919-3.621,16.1,5.441-1.854,8.582,1.888c3.827,4.514-8.067,20.767-14.9,24.7Z" transform="translate(54.871 -195.189)" fill="#44d7b6"/>
        <path id="Path_441" data-name="Path 441" d="M323.134,323.561h0a.858.858,0,0,1-.824-.892,123.574,123.574,0,0,1,19.223-59.728.841.841,0,0,1,1.2-.189.858.858,0,0,1,.189,1.184,121.994,121.994,0,0,0-18.88,58.818.858.858,0,0,1-.91.807Z" transform="translate(62.304 -191.64)" fill="#fff"/>
        <path id="Path_442" data-name="Path 442" d="M326.711,297.261a.909.909,0,0,1-.412-.1c-4.806-2.66-7.466-10.555-7.569-10.881a.852.852,0,1,1,1.613-.549s2.574,7.6,6.865,9.92a.875.875,0,0,1,.326,1.167A.841.841,0,0,1,326.711,297.261Z" transform="translate(59.705 -175.483)" fill="#fff"/>
        <path id="Path_443" data-name="Path 443" d="M324.205,294.086a.858.858,0,0,1-.824-.652A.841.841,0,0,1,324,292.4c12.392-3.141,16.683-9.629,16.717-9.7a.864.864,0,0,1,1.459.927c-.189.292-4.651,7.105-17.747,10.435Z" transform="translate(63.052 -177.509)" fill="#fff"/>
        <path id="Path_444" data-name="Path 444" d="M234.219,331.594s-16.459-4.016-17.318-34.841c-.91-33.262,4.033-72.085-15.447-75.226s-30.293,20.6-30.053,48.314c.223,24.269,10.006,76.96,62.748,87.292Z" transform="translate(-45.796 -221.247)" fill="#44d7b6"/>
        <path id="Path_445" data-name="Path 445" d="M234.219,331.594s-16.459-4.016-17.318-34.841c-.91-33.262,4.033-72.085-15.447-75.226s-30.293,20.6-30.053,48.314c.223,24.269,10.006,76.96,62.748,87.292Z" transform="translate(-45.796 -221.247)" opacity="0.2"/>
        <path id="Path_446" data-name="Path 446" d="M226.374,349.351h-.154c-11.86-2.163-21.523-8.7-28.714-19.411-21.317-31.8-14.606-91.188-12.392-101.554a.875.875,0,0,1,1.013-.669.893.893,0,0,1,.669,1.03c-2.18,10.3-8.856,68.927,12.134,100.233a41.4,41.4,0,0,0,27.6,18.674.858.858,0,0,1,.687,1.013A.841.841,0,0,1,226.374,349.351Z" transform="translate(-37.951 -216.623)" fill="#fff"/>
        <path id="Path_447" data-name="Path 447" d="M250.513,408.888c-17.009,2.3-44.624,2.266-60.569-10.3s-12.615-23.376-6.488-27.89,11.448-9.663.91-19.686-27.461-26.122-32.953-50.271-2.78-39.252,8-44.281c10.452-4.874,13.216,2.883,19.617,18.879s20.8,2.283,33.125,7.277,11.825,14.88,12.6,23.376,4.84,10.847,11.825,10.847,13.936,4.016,13.936,12.014Z" transform="translate(-62.09 -197.056)" fill="#44d7b6"/>
        <path id="Path_448" data-name="Path 448" d="M243.273,367.144a.516.516,0,0,1-.223,0c-.738-.206-18.33-5.321-43.955-28.851-27.289-25.058-40.162-62.645-40.3-63.023a.875.875,0,0,1,.549-1.081.858.858,0,0,1,1.081.532c.12.378,12.872,37.553,39.836,62.3,25.264,23.222,43.062,28.422,43.251,28.474a.858.858,0,0,1,.584,1.064.841.841,0,0,1-.824.584Z" transform="translate(-54.85 -183.356)" fill="#fff"/>
        <path id="Path_449" data-name="Path 449" d="M189.625,334.67a.824.824,0,0,1-.789-.549c-5.509-14.142-6.762-44.4-6.865-45.688a.875.875,0,0,1,.824-.893.91.91,0,0,1,.893.824c0,.309,1.287,31.254,6.694,45.139a.858.858,0,0,1-.5,1.116.893.893,0,0,1-.257.051Z" transform="translate(-38.223 -173.76)" fill="#fff"/>
        <path id="Path_450" data-name="Path 450" d="M188.645,330.15a40.551,40.551,0,0,1-4.737-.24.864.864,0,0,1,.206-1.716c.154,0,16.133,1.819,23.462-5.647a.858.858,0,1,1,1.219,1.2C203.491,329.224,194.24,330.15,188.645,330.15Z" transform="translate(-37.38 -148.902)" fill="#fff"/>
      </g>
      <g id="freepik--Gear--inject-26" transform="translate(115.908 86.13)">
        <path id="Path_451" data-name="Path 451" d="M207.294,147.124l-1.854-10.693-9.543,6.282a13.232,13.232,0,0,0-3.621-4.411l4.565-12.357-8.582-1.905-6.282,12.014a23.392,23.392,0,0,0-6.539,2.128l-2.729-9.062-10.195,8.015.669,10.641a57.277,57.277,0,0,0-5.629,7.449l-8.41-.429-5.9,13.233,7.226,3.089a42.357,42.357,0,0,0-1.425,8.376l-9.182,8.444,1.836,10.71,9.56-6.282a12.975,12.975,0,0,0,3.621,4.394l-4.48,12.375,8.582,1.888,8.993-8.753c2.077-.326,1.562-4.239,3.827-5.355l2.729,9.028,10.178-8-.257-4.188c2.06-2.3,9.852-7.363,11.534-10.006l2.111-3.433,5.9-13.233-2.746-4.977L198.2,155.62Zm-31.151,35.2c-7.826,6.144-10.3,7.5-11.619-.721s3.158-20.716,10.984-26.877,10.813-6.591,12.22,1.613S183.986,176.25,176.143,182.326Z" transform="translate(-68.41 -58.975)" fill="#e0e0e0"/>
        <path id="Path_452" data-name="Path 452" d="M170.722,124.04l11.139,6.419-6.282,11.98L164.44,136.02Z" transform="translate(-50.803 -58.975)" fill="#f5f5f5"/>
        <path id="Path_453" data-name="Path 453" d="M193.192,137.679l-9.543,6.282-11.139-6.419,9.543-6.282Z" transform="translate(-45.022 -53.803)" fill="#f5f5f5"/>
        <path id="Path_454" data-name="Path 454" d="M191.335,156.791l-7.226-3.072L172.97,147.3l7.226,3.072Z" transform="translate(-44.693 -42.313)" fill="#e0e0e0"/>
        <path id="Path_455" data-name="Path 455" d="M145.99,178.785l11.139,6.4,4.565-12.357-11.139-6.419Z" transform="translate(-64.019 -28.624)" fill="#e0e0e0"/>
        <path id="Path_456" data-name="Path 456" d="M172.271,181.947l-11.122-6.419L158.42,166.5l11.139,6.419Z" transform="translate(-55.115 -28.56)" fill="#e0e0e0"/>
        <path id="Path_457" data-name="Path 457" d="M213.738,150.864,211.9,140.172l-9.543,6.282a13.284,13.284,0,0,0-3.639-4.411l4.565-12.357-8.5-1.905-6.3,12.014a23.393,23.393,0,0,0-6.539,2.128l-2.712-9.028-10.195,8.015.669,10.641a57.269,57.269,0,0,0-5.63,7.5l-8.427-.429-5.9,13.233,7.226,3.089a43.6,43.6,0,0,0-1.425,8.393l-9.165,8.324,1.836,10.71,9.543-6.282a13.216,13.216,0,0,0,3.639,4.394l-4.565,12.357,8.582,1.905,6.282-12.014a22.845,22.845,0,0,0,6.556-2.145l2.712,9.028,10.195-8-.669-10.641a57.27,57.27,0,0,0,5.63-7.449l8.427.412,5.9-13.233-7.329-3.072a42.581,42.581,0,0,0,1.442-8.393Zm-31.117,35.27c-7.809,6.144-15.292,4.48-16.717-3.724s3.776-19.858,11.6-26,15.292-4.462,16.717,3.742S190.448,179.99,182.621,186.135Z" transform="translate(-63.732 -56.296)" fill="#ebebeb"/>
        <path id="Path_458" data-name="Path 458" d="M174.434,133.419,163.295,127,153.1,135.015l11.139,6.419Z" transform="translate(-58.926 -56.854)" fill="#f5f5f5"/>
        <path id="Path_459" data-name="Path 459" d="M153.1,131.67l.669,10.641,11.139,6.419-.669-10.641Z" transform="translate(-58.926 -53.509)" fill="#e0e0e0"/>
        <path id="Path_460" data-name="Path 460" d="M164.859,148.8l-11.139-6.419-8.41-.412,11.122,6.419Z" transform="translate(-64.506 -46.131)" fill="#f5f5f5"/>
        <path id="Path_461" data-name="Path 461" d="M147.774,141.97l-5.9,13.216,11.122,6.419,5.9-13.216Z" transform="translate(-66.97 -46.131)" fill="#e0e0e0"/>
        <path id="Path_462" data-name="Path 462" d="M160.2,162.769l-11.122-6.419-9.182,8.444,11.122,6.419Z" transform="translate(-68.381 -35.831)" fill="#f5f5f5"/>
        <path id="Path_463" data-name="Path 463" d="M152.875,178.4l-11.139-6.419L139.9,161.27l11.122,6.419Z" transform="translate(-68.381 -32.306)" fill="#e0e0e0"/>
        <path id="Path_464" data-name="Path 464" d="M179.239,130.459,168.1,124.04l8.513,1.905,11.122,6.419Z" transform="translate(-48.181 -58.975)" fill="#f5f5f5"/>
        <path id="Path_465" data-name="Path 465" d="M187.238,125.743V109.764L174.52,115.5a22.93,22.93,0,0,0-3.433-7.569L179.1,91.777,169.32,86.13l-9.989,15.018a22.672,22.672,0,0,0-8.273.807l-1.407-13.885-13.833,8-1.39,15.447a68.105,68.105,0,0,0-8.273,8.753l-9.989-3.433-9.783,16.957,8,6.865a69.014,69.014,0,0,0-3.433,11.534L98.23,161.133v16l12.718-5.732a22.93,22.93,0,0,0,3.433,7.569l-7.964,16.168,9.783,5.647,9.989-15.018a22.708,22.708,0,0,0,8.273-.807l1.39,13.885,13.833-8,1.407-15.447A26.088,26.088,0,0,0,162.18,167.6l7.174,2.523,9.783-16.94-6.007-5.149a35.717,35.717,0,0,0,1.424-13.267Zm-44.5,39.921c-10.607,6.127-17.163,1.716-17.163-10.487s8.77-27.289,19.394-33.417,17.043-1.716,17.043,10.59S153.358,159.52,142.734,165.664Z" transform="translate(-98.23 -86.13)" fill="#e0e0e0"/>
        <path id="Path_466" data-name="Path 466" d="M154.941,92.532l-11.122-6.4-9.989,15.018,11.122,6.419Z" transform="translate(-72.729 -86.13)" fill="#f5f5f5"/>
        <path id="Path_467" data-name="Path 467" d="M166.537,106.319,155.4,99.9l-12.718,5.732,11.139,6.419Z" transform="translate(-66.39 -76.266)" fill="#f5f5f5"/>
        <path id="Path_468" data-name="Path 468" d="M131.832,164.014l-11.122-6.419-1.39-13.885,11.122,6.419Z" transform="translate(-83.123 -44.885)" fill="#e0e0e0"/>
        <path id="Path_469" data-name="Path 469" d="M102.97,156.381l11.139,6.419,8.015-16.151-11.139-6.419Z" transform="translate(-94.835 -47.378)" fill="#e0e0e0"/>
        <path id="Path_470" data-name="Path 470" d="M193.728,129.561V113.582l-12.718,5.681a22.6,22.6,0,0,0-3.433-7.569l8.015-16.151L175.81,89.88l-9.989,15.035a22.312,22.312,0,0,0-8.273.807L156.141,91.8l-13.833,8L140.9,115.247A69.308,69.308,0,0,0,132.627,124l-9.989-3.433-9.783,16.957,8.015,6.865a67.433,67.433,0,0,0-3.433,11.534l-12.718,8.942v16l12.718-5.732a22.587,22.587,0,0,0,3.433,7.569l-8.015,16.15,9.783,5.647,9.989-15.018a22.673,22.673,0,0,0,8.273-.807l1.407,13.885,13.833-8,1.39-15.447a68.1,68.1,0,0,0,8.273-8.753l9.989,3.433,9.783-16.94-8.015-6.865a67.522,67.522,0,0,0,3.433-11.534Zm-44.5,39.921c-10.624,6.127-19.24,1.15-19.24-11.1s8.582-27.169,19.24-33.314,19.223-1.15,19.223,11.1-8.616,27.083-19.223,33.228Z" transform="translate(-93.581 -83.444)" fill="#ebebeb"/>
        <path id="Path_471" data-name="Path 471" d="M118.669,107.5l11.122,6.419-9.989-3.484L108.68,104Z" transform="translate(-90.745 -73.329)" fill="#f0f0f0"/>
        <rect id="Rectangle_39" data-name="Rectangle 39" width="19.583" height="12.855" transform="translate(8.149 47.651) rotate(-60.02)" fill="#f5f5f5"/>
        <path id="Path_472" data-name="Path 472" d="M102.97,113.88l11.139,6.419,8.015,6.9-11.139-6.4Z" transform="translate(-94.835 -66.252)" fill="#e0e0e0"/>
        <path id="Path_473" data-name="Path 473" d="M110.948,124.63l11.139,6.419-12.718,8.942L98.23,133.572Z" transform="translate(-98.23 -58.552)" fill="#f5f5f5"/>
        <path id="Path_474" data-name="Path 474" d="M98.23,129.84l11.139,6.419v16L98.23,145.836Z" transform="translate(-98.23 -54.82)" fill="#e0e0e0"/>
        <path id="Path_475" data-name="Path 475" d="M145.1,93.679,133.964,87.26l-13.834,8,11.122,6.419Z" transform="translate(-82.543 -85.321)" fill="#f5f5f5"/>
      </g>
      <g id="freepik--Device--inject-26" transform="translate(298.936 86.189)">
        <path id="Path_476" data-name="Path 476" d="M227.119,402.241l161.333-93.161a1.819,1.819,0,0,0,0-3.433l-14.915-8.582a6.625,6.625,0,0,0-5.956,0L206.2,390.141a1.819,1.819,0,0,0,0,3.433l14.966,8.582A6.625,6.625,0,0,0,227.119,402.241Z" transform="translate(-204.982 63.889)" fill="#e0e0e0"/>
        <path id="Path_477" data-name="Path 477" d="M373.116,94.622l-145.475,83.9a16.42,16.42,0,0,0-7.432,12.858V536.086c0,4.732,3.33,6.652,7.432,4.286l145.475-83.9a16.368,16.368,0,0,0,7.432-12.858V98.908C380.548,94.176,377.236,92.256,373.116,94.622Z" transform="translate(-194.073 -80.832)" fill="#d8e3eb"/>
        <path id="Path_478" data-name="Path 478" d="M235.464,183.952l145.475-84c3.673-2.128,6.711-.807,7.329,2.883a16.614,16.614,0,0,0-7.329-11.465L374.9,87.942a16.425,16.425,0,0,0-14.863,0L214.542,171.87a15.292,15.292,0,0,0-5.252,5.544l20.922,12.014a15.017,15.017,0,0,1,5.252-5.475Z" transform="translate(-201.895 -86.164)" fill="#c3d0d9"/>
        <path id="Path_479" data-name="Path 479" d="M208,491.729a16.442,16.442,0,0,0,7.432,12.872l6.059,3.433a16.648,16.648,0,0,0,13.593.584c-3.433,1.339-6.162-.635-6.162-4.874V158.713a15.1,15.1,0,0,1,2.18-7.329L210.18,139.37a15.292,15.292,0,0,0-2.18,7.26Z" transform="translate(-202.819 -48.563)" fill="#9ba5ac"/>
        <path id="Path_480" data-name="Path 480" d="M228.711,203.192,366.239,123.93c2.471-1.405,4.462-.257,4.462,2.571V381.545a9.817,9.817,0,0,1-4.462,7.712L228.762,468.52c-2.471,1.422-4.462.274-4.462-2.571V210.9a9.834,9.834,0,0,1,4.411-7.712Z" transform="translate(-191.144 -59.542)" fill="#fff"/>
        <path id="Path_481" data-name="Path 481" d="M268.009,126.437a5.8,5.8,0,0,0-2.609,4.531c0,1.716,1.167,2.351,2.609,1.51a5.749,5.749,0,0,0,2.609-4.531C270.618,126.283,269.451,125.613,268.009,126.437Z" transform="translate(-161.703 -57.569)" fill="#677592"/>
        <path id="Path_482" data-name="Path 482" d="M271.218,309.329a22.827,22.827,0,0,0-10.3,17.884c0,6.573,4.617,9.251,10.3,5.956a22.844,22.844,0,0,0,10.3-17.884C281.55,308.711,276.916,306.033,271.218,309.329Z" transform="translate(-164.912 72.17)" fill="#677592"/>
        <path id="Path_483" data-name="Path 483" d="M254.679,142.067a11.551,11.551,0,0,0-5.149,9.062c0,3.33,2.334,4.686,5.149,3.021a11.551,11.551,0,0,0,5.235-9.062C259.914,141.758,257.579,140.4,254.679,142.067Z" transform="translate(-173.071 -46.737)" fill="#677592"/>
        <path id="Path_484" data-name="Path 484" d="M260,152.193c0,2.231,1.716,3.072,3.724,1.888l34.326-19.858a7.964,7.964,0,0,0,3.724-6.179c0-2.214-1.716-3.055-3.724-1.871l-34.326,19.858A7.964,7.964,0,0,0,260,152.193Z" transform="translate(-165.571 -57.89)" fill="#677592"/>
        <path id="Path_485" data-name="Path 485" d="M216.5,176.605a9.251,9.251,0,0,1,4.188,7.243c0,2.677-1.871,3.759-4.188,2.42a9.268,9.268,0,0,1-4.171-7.243C212.33,176.365,214.2,175.284,216.5,176.605Z" transform="translate(-199.718 -21.957)" fill="#37474f"/>
        <path id="Path_486" data-name="Path 486" d="M216.5,195.39a9.251,9.251,0,0,1,4.188,7.243c0,2.66-1.871,3.742-4.188,2.42a9.268,9.268,0,0,1-4.171-7.243C212.33,195.132,214.2,194.051,216.5,195.39Z" transform="translate(-199.718 -8.545)" fill="#37474f"/>
        <path id="Path_487" data-name="Path 487" d="M215.748,176.98a9.251,9.251,0,0,1,4.188,7.243c0,2.66-1.871,3.742-4.188,2.42a9.251,9.251,0,0,1-4.188-7.243C211.577,176.723,213.448,175.693,215.748,176.98Z" transform="translate(-200.269 -21.68)" fill="#677592"/>
        <path id="Path_488" data-name="Path 488" d="M215.748,195.755a9.251,9.251,0,0,1,4.188,7.26c0,2.66-1.871,3.742-4.188,2.4a9.2,9.2,0,0,1-4.188-7.243C211.577,195.515,213.448,194.434,215.748,195.755Z" transform="translate(-200.269 -8.276)" fill="#677592"/>
        <path id="Path_489" data-name="Path 489" d="M386.921,131.22c0-2.849-1.991-4-4.462-2.574L366,138.136,244.982,208.025a9.835,9.835,0,0,0-4.462,7.723V471.1c0,2.849,1.991,4,4.462,2.574L366.051,403.77l16.408-9.474a9.834,9.834,0,0,0,4.462-7.723Z" transform="translate(-179.525 -56.683)" fill="#fff"/>
        <path id="Path_490" data-name="Path 490" d="M389.361,131.953a4.411,4.411,0,0,0-7.037-4.062l-15.7,9.066h0L244.847,207.223a11.411,11.411,0,0,0-5.321,9.2V471.338a4.745,4.745,0,0,0,2.163,4.37,3.935,3.935,0,0,0,2.025.531,5.877,5.877,0,0,0,2.849-.84l121.858-70.266h0l15.67-9.032a11.565,11.565,0,0,0,5.321-9.2ZM366.654,402.2h0l-1.407.823h0L244.916,472.4a1.718,1.718,0,0,1-1.442.308c-.223-.137-.446-.617-.446-1.405V216.358a8.241,8.241,0,0,1,3.6-6.238L366.842,140.71h0l17.163-9.923a1.718,1.718,0,0,1,1.442-.308c.223.137.446.617.446,1.405V386.933a8.241,8.241,0,0,1-3.6,6.238l-15.67,9.032Z" transform="translate(-180.248 -56.913)" fill="#c3d0d9"/>
        <path id="Path_491" data-name="Path 491" d="M294.81,166.052c15.447-8.891,27.89-1.716,27.89,16.116s-12.495,39.475-27.89,48.3-27.89,1.716-27.89-16.1S279.415,174.959,294.81,166.052Z" transform="translate(-160.614 -31.841)" fill="#d8e3eb"/>
        <path id="Path_492" data-name="Path 492" d="M286.945,173.136c4.994-2.883,9.045-.549,9.045,5.149a20,20,0,0,1-9.045,15.67c-4.994,2.883-9.045.549-9.045-5.149A20,20,0,0,1,286.945,173.136Z" transform="translate(-152.749 -24.921)" fill="#fff"/>
        <path id="Path_493" data-name="Path 493" d="M308,194.968c0-9.474-6.642-13.319-14.863-8.582l-5.149,2.969c-8.2,4.737-14.863,16.271-14.863,25.745v2.557c4.754,1.562,10.727.721,17.163-3.038a54.922,54.922,0,0,0,17.627-17.455Z" transform="translate(-156.173 -16.026)" fill="#fff"/>
        <path id="Path_494" data-name="Path 494" d="M286.945,173.136c4.994-2.883,9.045-.549,9.045,5.149a20,20,0,0,1-9.045,15.67c-4.994,2.883-9.045.549-9.045-5.149A20,20,0,0,1,286.945,173.136Z" transform="translate(-152.749 -24.921)" fill="#fff" opacity="0.7"/>
        <path id="Path_495" data-name="Path 495" d="M308,194.968c0-9.474-6.642-13.319-14.863-8.582l-5.149,2.969c-8.2,4.737-14.863,16.271-14.863,25.745v2.557c4.754,1.562,10.727.721,17.163-3.038a54.922,54.922,0,0,0,17.627-17.455Z" transform="translate(-156.173 -16.026)" fill="#fff" opacity="0.7"/>
        <path id="Path_496" data-name="Path 496" d="M252.969,233.655l35.888-20.716c1.716-.944,2.969-.189,2.969,1.716v1.184a6.556,6.556,0,0,1-2.969,5.149L252.969,241.7c-1.63.944-2.969.172-2.969-1.716V238.8A6.574,6.574,0,0,1,252.969,233.655Z" transform="translate(-172.734 4.102)" fill="#777d88"/>
        <path id="Path_497" data-name="Path 497" d="M252.969,233.655l35.888-20.716c1.716-.944,2.969-.189,2.969,1.716v1.184a6.556,6.556,0,0,1-2.969,5.149L252.969,241.7c-1.63.944-2.969.172-2.969-1.716V238.8A6.574,6.574,0,0,1,252.969,233.655Z" transform="translate(-172.734 4.102)" opacity="0.1"/>
        <path id="Path_498" data-name="Path 498" d="M251.493,265.657l108.574-62.68c.807-.481,1.476-.1,1.476.858V216.5a3.33,3.33,0,0,1-1.476,2.574l-108.574,62.68c-.824.481-1.493.086-1.493-.858V268.231a3.3,3.3,0,0,1,1.493-2.574Z" transform="translate(-172.734 -2.903)" fill="#c3d0d9"/>
        <path id="Path_499" data-name="Path 499" d="M251.493,265.657l108.574-62.68c.807-.481,1.476-.1,1.476.858V216.5a3.33,3.33,0,0,1-1.476,2.574l-108.574,62.68c-.824.481-1.493.086-1.493-.858V268.231a3.3,3.3,0,0,1,1.493-2.574Z" transform="translate(-172.734 -2.903)" fill="#fff" opacity="0.2"/>
        <path id="Path_500" data-name="Path 500" d="M252.969,266.484l35.888-20.716c1.716-.944,2.969-.172,2.969,1.716v1.184a6.539,6.539,0,0,1-2.969,5.149l-35.888,20.716c-1.63.961-2.969.189-2.969-1.716v-1.184a6.608,6.608,0,0,1,2.969-5.149Z" transform="translate(-172.734 27.554)" fill="#777d88"/>
        <path id="Path_501" data-name="Path 501" d="M252.969,266.484l35.888-20.716c1.716-.944,2.969-.172,2.969,1.716v1.184a6.539,6.539,0,0,1-2.969,5.149l-35.888,20.716c-1.63.961-2.969.189-2.969-1.716v-1.184a6.608,6.608,0,0,1,2.969-5.149Z" transform="translate(-172.734 27.554)" opacity="0.1"/>
        <path id="Path_502" data-name="Path 502" d="M251.493,298.485l108.574-62.68c.807-.481,1.476-.086,1.476.858V249.33a3.33,3.33,0,0,1-1.476,2.574l-108.574,62.68c-.824.481-1.493.1-1.493-.858V301.06a3.3,3.3,0,0,1,1.493-2.574Z" transform="translate(-172.734 20.541)" fill="#c3d0d9"/>
        <path id="Path_503" data-name="Path 503" d="M251.493,298.485l108.574-62.68c.807-.481,1.476-.086,1.476.858V249.33a3.33,3.33,0,0,1-1.476,2.574l-108.574,62.68c-.824.481-1.493.1-1.493-.858V301.06a3.3,3.3,0,0,1,1.493-2.574Z" transform="translate(-172.734 20.541)" fill="#fff" opacity="0.2"/>
        <path id="Path_504" data-name="Path 504" d="M277.339,286.925l42.908-24.732c1.716-.961,2.986-.189,2.986,1.716v13.25a6.556,6.556,0,0,1-2.986,5.149l-42.908,24.749c-1.716.944-2.969.172-2.969-1.716V292.074A6.625,6.625,0,0,1,277.339,286.925Z" transform="translate(-155.278 39.266)" fill="#9292ff"/>
        <path id="Path_505" data-name="Path 505" d="M277.339,286.925l42.908-24.732c1.716-.961,2.986-.189,2.986,1.716v13.25a6.556,6.556,0,0,1-2.986,5.149l-42.908,24.749c-1.716.944-2.969.172-2.969-1.716V292.074A6.625,6.625,0,0,1,277.339,286.925Z" transform="translate(-155.278 39.266)" opacity="0.1"/>
      </g>
      <g id="freepik--Character--inject-26" transform="translate(478.818 268.198)">
        <path id="Path_506" data-name="Path 506" d="M353.508,268.085s-21.076-29.074-22.312-32.61c-.978-2.609,0-6.488.309-8.29s.584-5.818.892-6.865c.515-1.957-2.008-1.562-3.433.223s-1.905,5.355-2.643,5.938-6.35-7.6-9.285-11.379-4.771-6.076-6.573-4.668c-1.287,1.013-.326,3.209,1.8,6.436a57.957,57.957,0,0,1,3.433,5.406c.326.7-1.425.755-2.369,2.214-.738,1.133,0,2.969-1.03,3.845a3.244,3.244,0,0,0-.824,4.239,28.043,28.043,0,0,0,7.26,7.689c3.158,2.18,4.428,2.952,6.3,5.921s18.656,33.3,19.789,35.116,3.312,5.527,6.625,5.63,30.43-23.239,31.82-24.406c4.462-3.724,5.887-4.256,6.642-.91a33.034,33.034,0,0,1,.584,3.6c.532,4.256,3.433,19.463,3.433,19.463s13.73,6.642,25.007,3.433,15.086-8,15.086-8l-5.647-9.2c1.528-3.793,8.582-19.171,10.864-29.932l-35.356-5.715c-.721-.154-1.888-.446-3.433-.841-1.939-.515-6.865-2.214-10.59,1.047-12.151,10.59-36.317,32.61-36.317,32.61" transform="translate(-309.881 -179.967)" fill="#ffa8a7"/>
        <path id="Path_507" data-name="Path 507" d="M378.783,347.9l-6.333,8.8a21.042,21.042,0,0,0,9.2,1.974c5.681.206,7.243-1.716,7.449-2.094.961-2.06-.532-5.767-.944-8.959Z" transform="translate(-265.063 -81.393)" fill="#37474f"/>
        <path id="Path_508" data-name="Path 508" d="M381.626,350.983s-7.689-.5-12.992-1.15-9.508,1.922-8.273,4.1,4.171,4,8.736,5.527c3.9,1.322,8.582,2.266,12.632,3.433s6.865,2.695,9.217,1.871c2.626-.91,3.759-1.957,3.536-3.879a83.284,83.284,0,0,0-2.128-8.1Z" transform="translate(-273.878 -79.889)" fill="#37474f"/>
        <path id="Path_509" data-name="Path 509" d="M386.555,343.034s-.961,8-1.03,9.714-7.809,2.266-9.285-.875L376,342.09Z" transform="translate(-262.52 -85.361)" fill="#f28f8f"/>
        <path id="Path_510" data-name="Path 510" d="M386.9,345.5l2.763,12.151s.257,1.476-6.059,2.42-16.236-3.312-17.935-4.171-1.888-2.592,4.325-2.248,8.41.36,8.41.36l-2.025-5.372Z" transform="translate(-270.653 -82.919)" fill="#ffa8a7"/>
        <path id="Path_511" data-name="Path 511" d="M388.471,228.509l4.377-1.219s9.148,28.954,10.161,31.752,2.163,5.75.189,9.2c-2.351,4.1-14.726,20.6-14.726,20.6l-7.861-7.689,8.925-16.339-7.9-15.962Z" transform="translate(-259.218 -167.594)" fill="#f28f8f"/>
        <path id="Path_512" data-name="Path 512" d="M359.632,215.819a12.907,12.907,0,0,1,.189-12.478c4.359-8.084,14.074-12.014,25.642-10.521,5.355.7,11.671,5.149,15.121,11.791,3.81,7.363,4.171,22.192,5.149,27.8Z" transform="translate(-275.329 -192.508)" fill="#37474f"/>
        <path id="Path_513" data-name="Path 513" d="M359.789,207.94s-2.746,5.235-2.266,5.715a7.19,7.19,0,0,0,2.3.858Z" transform="translate(-275.795 -181.454)" fill="#ffa8a7"/>
        <path id="Path_514" data-name="Path 514" d="M367.178,199.189c-2.986,1.939-8.135,5.509-8.358,17.266-.24,12.014,1.476,15.979,3.261,17.369,1.2.944,8.255.463,11.276-.24s11.722-5.012,14.863-11.551c3.69-7.689,2.935-18.879-2.54-22.312a19.12,19.12,0,0,0-18.5-.532Z" transform="translate(-274.843 -189.249)" fill="#ffa8a7"/>
        <path id="Path_515" data-name="Path 515" d="M389.313,250.82c5.286,8.238,10.3,15.447,11.4,24.749,2.266,19.549-5.149,41.9-6.745,56.364a26.071,26.071,0,0,1,4.977,14.108c0,5.99-9.629,62.371-9.629,62.371s-7,2.128-10.555-.944L372.15,303.751l3.433-12.632Z" transform="translate(-265.278 -150.739)" fill="#ff4c60"/>
        <path id="Path_516" data-name="Path 516" d="M389.313,250.82c5.286,8.238,10.3,15.447,11.4,24.749,2.266,19.549-5.149,41.9-6.745,56.364a26.071,26.071,0,0,1,4.977,14.108c0,5.99-9.629,62.371-9.629,62.371s-7,2.128-10.555-.944L372.15,303.751l3.433-12.632Z" transform="translate(-265.278 -150.739)" opacity="0.15"/>
        <path id="Path_517" data-name="Path 517" d="M372.15,290.062l3.433-12.632a84.321,84.321,0,0,0,18.88-7.5s-3.57,6.5-13.834,10.075l-5.3,16.219-.446,37.158Z" transform="translate(-265.278 -137.05)" fill="#ff4c60"/>
        <path id="Path_518" data-name="Path 518" d="M372.15,290.062l3.433-12.632a84.321,84.321,0,0,0,18.88-7.5s-3.57,6.5-13.834,10.075l-5.3,16.219-.446,37.158Z" transform="translate(-265.278 -137.05)" opacity="0.3"/>
        <path id="Path_519" data-name="Path 519" d="M403.339,250.82c2.832,4.634,9.594,12.529,8.152,20.132-1.716,9.2-6.694,15.67-21.832,20.167l-14.211,51.489s7.4,6.865,9.663,13.507,10.435,57.239,10.435,57.239-2.54,4.136-10.521,3.141c0,0-27.821-63.5-29.778-67.64A20.6,20.6,0,0,1,352.9,335.04c.875-6.659,10.3-79.551,10.3-79.551Z" transform="translate(-279.304 -150.739)" fill="#ff4c60"/>
        <path id="Path_520" data-name="Path 520" d="M403.339,250.82c2.832,4.634,9.594,12.529,8.152,20.132-1.716,9.2-6.694,15.67-21.832,20.167l-14.211,51.489s7.4,6.865,9.663,13.507,10.435,57.239,10.435,57.239-2.54,4.136-10.521,3.141c0,0-27.821-63.5-29.778-67.64A20.6,20.6,0,0,1,352.9,335.04c.875-6.659,10.3-79.551,10.3-79.551Z" transform="translate(-279.304 -150.739)" opacity="0.15"/>
        <path id="Path_521" data-name="Path 521" d="M405.8,230.736l-35.356-5.715c-.721-.154-1.888-.446-3.433-.841h0s-1.51,22.175-10.59,27.255h0c.223,1.064.412,2.248.584,3.6.532,4.256,3.433,19.463,3.433,19.463s13.73,6.642,25.007,3.433,15.086-8,15.086-8l-5.647-9.2C396.462,256.91,403.567,241.532,405.8,230.736Z" transform="translate(-276.545 -169.822)" fill="#9292ff"/>
        <path id="Path_522" data-name="Path 522" d="M405.8,230.736l-35.356-5.715c-.721-.154-1.888-.446-3.433-.841h0s-1.51,22.175-10.59,27.255h0c.223,1.064.412,2.248.584,3.6.532,4.256,3.433,19.463,3.433,19.463s13.73,6.642,25.007,3.433,15.086-8,15.086-8l-5.647-9.2C396.462,256.91,403.567,241.532,405.8,230.736Z" transform="translate(-276.545 -169.822)" fill="#fff" opacity="0.7"/>
        <path id="Path_523" data-name="Path 523" d="M385.9,243.35a99.8,99.8,0,0,1-14.709,7.26,27.633,27.633,0,0,0,13.164-3.639Z" transform="translate(-265.965 -156.09)" fill="#9292ff"/>
        <path id="Path_524" data-name="Path 524" d="M363.321,201.1s-1.716,11.156,2.334,17.712c0,0,1.51-4.445,5.269-3.6s3.965,5.8,1.322,8.582a5.475,5.475,0,0,1-5.561,1.716s-.6,8.067-.927,14.829-2.111,21.505,5.492,27.461,26.689,8.049,35.631-4.445c4.977-6.951-1.63-19.24-4.7-33.022-2.832-12.666-4.428-31.443-17.867-34.464S363.321,201.1,363.321,201.1Z" transform="translate(-271.861 -190.578)" fill="#37474f"/>
      </g>
      <g id="freepik--Cloud--inject-26" transform="translate(557.252 115.08)">
        <path id="Path_525" data-name="Path 525" d="M417.916,114.724l-2.832,1.716a14.932,14.932,0,0,0,.395-3.072c0-5.75-4.033-8.067-9.011-5.149a15.893,15.893,0,0,0-4,3.433h0c0-7.723-5.424-10.864-12.117-7a26.792,26.792,0,0,0-12.117,20.991v1.15a7.346,7.346,0,0,0-4.926,1.133,19.909,19.909,0,0,0-9.011,15.6,10.474,10.474,0,0,0,.223,2.163l-1.51.875c-4.1,2.369-7.432,6.985-7.432,10.3s3.33,4.1,7.432,1.716l54.922-31.666c4.1-2.368,7.432-6.985,7.432-10.3S422.018,112.339,417.916,114.724Z" transform="translate(-355.58 -102.997)" fill="#ebebeb"/>
      </g>
    </g>
  </g>
</svg>
