<svg xmlns="http://www.w3.org/2000/svg" xmlns:xlink="http://www.w3.org/1999/xlink" width="70" height="70" viewBox="0 0 70 70">
  <defs>
    <linearGradient id="linear-gradient" x1="0.92" y1="0.888" x2="0.124" y2="0.067" gradientUnits="objectBoundingBox">
      <stop offset="0" stop-color="#fbd067"/>
      <stop offset="1" stop-color="#ffeab5"/>
    </linearGradient>
    <filter id="Path_25" x="14.489" y="18.459" width="10.97" height="10.168" filterUnits="userSpaceOnUse">
      <feOffset dy="2" input="SourceAlpha"/>
      <feGaussianBlur stdDeviation="1.5" result="blur"/>
      <feFlood flood-opacity="0.2"/>
      <feComposite operator="in" in2="blur"/>
      <feComposite in="SourceGraphic"/>
    </filter>
    <filter id="Path_26" x="18.482" y="18.459" width="10.97" height="10.168" filterUnits="userSpaceOnUse">
      <feOffset dy="2" input="SourceAlpha"/>
      <feGaussianBlur stdDeviation="1.5" result="blur-2"/>
      <feFlood flood-opacity="0.2"/>
      <feComposite operator="in" in2="blur-2"/>
      <feComposite in="SourceGraphic"/>
    </filter>
    <filter id="Path_27" x="22.461" y="18.459" width="10.97" height="10.168" filterUnits="userSpaceOnUse">
      <feOffset dy="2" input="SourceAlpha"/>
      <feGaussianBlur stdDeviation="1.5" result="blur-3"/>
      <feFlood flood-opacity="0.2"/>
      <feComposite operator="in" in2="blur-3"/>
      <feComposite in="SourceGraphic"/>
    </filter>
    <filter id="Path_28" x="19.835" y="25.082" width="29.458" height="32.056" filterUnits="userSpaceOnUse">
      <feOffset dy="2" input="SourceAlpha"/>
      <feGaussianBlur stdDeviation="1.5" result="blur-4"/>
      <feFlood flood-opacity="0.2"/>
      <feComposite operator="in" in2="blur-4"/>
      <feComposite in="SourceGraphic"/>
    </filter>
    <filter id="Path_29" x="35.663" y="26.681" width="11.732" height="11.732" filterUnits="userSpaceOnUse">
      <feOffset dy="2" input="SourceAlpha"/>
      <feGaussianBlur stdDeviation="1.5" result="blur-5"/>
      <feFlood flood-opacity="0.2"/>
      <feComposite operator="in" in2="blur-5"/>
      <feComposite in="SourceGraphic"/>
    </filter>
    <filter id="Path_30" x="32.59" y="23.881" width="10.168" height="12.38" filterUnits="userSpaceOnUse">
      <feOffset dy="2" input="SourceAlpha"/>
      <feGaussianBlur stdDeviation="1.5" result="blur-6"/>
      <feFlood flood-opacity="0.2"/>
      <feComposite operator="in" in2="blur-6"/>
      <feComposite in="SourceGraphic"/>
    </filter>
    <filter id="Path_31" x="37.751" y="31.368" width="12.38" height="10.168" filterUnits="userSpaceOnUse">
      <feOffset dy="2" input="SourceAlpha"/>
      <feGaussianBlur stdDeviation="1.5" result="blur-7"/>
      <feFlood flood-opacity="0.2"/>
      <feComposite operator="in" in2="blur-7"/>
      <feComposite in="SourceGraphic"/>
    </filter>
    <filter id="Path_32" x="13.859" y="26.112" width="15.162" height="10.168" filterUnits="userSpaceOnUse">
      <feOffset dy="2" input="SourceAlpha"/>
      <feGaussianBlur stdDeviation="1.5" result="blur-8"/>
      <feFlood flood-opacity="0.2"/>
      <feComposite operator="in" in2="blur-8"/>
      <feComposite in="SourceGraphic"/>
    </filter>
    <filter id="Path_33" x="13.859" y="29.063" width="13.605" height="10.168" filterUnits="userSpaceOnUse">
      <feOffset dy="2" input="SourceAlpha"/>
      <feGaussianBlur stdDeviation="1.5" result="blur-9"/>
      <feFlood flood-opacity="0.2"/>
      <feComposite operator="in" in2="blur-9"/>
      <feComposite in="SourceGraphic"/>
    </filter>
    <filter id="Path_34" x="37.274" y="41.631" width="18.455" height="10.168" filterUnits="userSpaceOnUse">
      <feOffset dy="2" input="SourceAlpha"/>
      <feGaussianBlur stdDeviation="1.5" result="blur-10"/>
      <feFlood flood-opacity="0.2"/>
      <feComposite operator="in" in2="blur-10"/>
      <feComposite in="SourceGraphic"/>
    </filter>
    <filter id="Path_35" x="40.387" y="44.29" width="15.341" height="10.168" filterUnits="userSpaceOnUse">
      <feOffset dy="2" input="SourceAlpha"/>
      <feGaussianBlur stdDeviation="1.5" result="blur-11"/>
      <feFlood flood-opacity="0.2"/>
      <feComposite operator="in" in2="blur-11"/>
      <feComposite in="SourceGraphic"/>
    </filter>
    <filter id="Path_36" x="10.5" y="15.5" width="49" height="44" filterUnits="userSpaceOnUse">
      <feOffset dy="2" input="SourceAlpha"/>
      <feGaussianBlur stdDeviation="1.5" result="blur-12"/>
      <feFlood flood-opacity="0.2"/>
      <feComposite operator="in" in2="blur-12"/>
      <feComposite in="SourceGraphic"/>
    </filter>
  </defs>
  <g id="AdCreateLogo" transform="translate(-1315 -1488)">
    <rect id="Rectangle_10" data-name="Rectangle 10" width="70" height="70" rx="20" transform="translate(1315 1488)" fill="url(#linear-gradient)"/>
    <g id="Group_40" data-name="Group 40">
      <g transform="matrix(1, 0, 0, 1, 1315, 1488)" filter="url(#Path_25)">
        <path id="Path_25-2" data-name="Path 25" d="M51.819,71.681a.584.584,0,1,0,0,1.168h.8a.584.584,0,1,0,0-1.168Z" transform="translate(-32.25 -50.72)" fill="#fff"/>
      </g>
      <g transform="matrix(1, 0, 0, 1, 1315, 1488)" filter="url(#Path_26)">
        <path id="Path_26-2" data-name="Path 26" d="M102.734,71.681a.584.584,0,0,0,0,1.168h.8a.584.584,0,1,0,0-1.168Z" transform="translate(-79.17 -50.72)" fill="#fff"/>
      </g>
      <g transform="matrix(1, 0, 0, 1, 1315, 1488)" filter="url(#Path_27)">
        <path id="Path_27-2" data-name="Path 27" d="M154.452,72.849a.584.584,0,1,0,0-1.168h-.8a.584.584,0,0,0,0,1.168Z" transform="translate(-126.11 -50.72)" fill="#fff"/>
      </g>
      <g transform="matrix(1, 0, 0, 1, 1315, 1488)" filter="url(#Path_28)">
        <path id="Path_28-2" data-name="Path 28" d="M139.361,163.567a.591.591,0,0,0,.831,0,.581.581,0,0,0,0-.826l-10.821-10.748a.591.591,0,0,0-.831,0,.581.581,0,0,0,0,.826l.189.187-1.307,3.147a.591.591,0,0,0-.772.051.581.581,0,0,0,0,.826l.289.287-1.019,2.452-4.414,4.383a1.649,1.649,0,0,0,0,2.34l.079.079-.416.413h0a.591.591,0,0,0-.831,0,.581.581,0,0,0,0,.826l.039.039a2.748,2.748,0,0,0,.344,3.485,2.8,2.8,0,0,0,3.509.342l.039.039a.591.591,0,0,0,.831,0,.581.581,0,0,0,0-.826h0l.416-.413.079.079a1.676,1.676,0,0,0,2.356,0l.081-.081,1.555,1.544a.591.591,0,0,0,.831,0,.581.581,0,0,0,0-.826l-1.555-1.544,1.862-1.849L131.94,169a.033.033,0,0,1,.008.034l-.3.832a1.2,1.2,0,0,0,.282,1.258l1.7,1.691a.383.383,0,0,1,0,.543l-.239.237a.389.389,0,0,1-.547,0l-.765-.76a.591.591,0,0,0-.831,0,.581.581,0,0,0,0,.826l.765.76a1.572,1.572,0,0,0,2.21,0l.239-.237a1.546,1.546,0,0,0,0-2.195l-1.7-1.691a.033.033,0,0,1-.008-.034l.3-.832a1.2,1.2,0,0,0-.282-1.258l-1.216-1.208.808-.8,2.469-1.011.289.287a.591.591,0,0,0,.831,0,.581.581,0,0,0,.051-.767l3.169-1.3Zm-13.866-.134h0l-1.027,1.02a.379.379,0,0,1-.533,0l-.534-.531,1.561-1.55.534.531A.372.372,0,0,1,125.5,163.432ZM121.55,170.5a1.578,1.578,0,0,1-.314-1.8l2.13,2.116A1.611,1.611,0,0,1,121.55,170.5Zm3.131-.859-.416.413L122,167.808l.416-.413Zm1.742.079-4.086-4.059a.485.485,0,0,1,0-.689l.231-.23.534.531a1.56,1.56,0,0,0,2.2,0l1.027-1.02a1.534,1.534,0,0,0,0-2.181l-.534-.531.626-.622,4.78,4.747-3.583,3.558h0l-.5.493a.493.493,0,0,1-.694,0Zm5.745-4.74-5.057-5.022.727-1.75,6.092,6.051Zm2.94-1.2-6.784-6.738,1.3-3.141,8.643,8.585Z" transform="translate(-95.57 -124.24)" fill="#fff"/>
      </g>
      <g transform="matrix(1, 0, 0, 1, 1315, 1488)" filter="url(#Path_29)">
        <path id="Path_29-2" data-name="Path 29" d="M323.741,175.755l-1.564,1.564a.584.584,0,0,0,.826.826l1.564-1.564a.584.584,0,1,0-.826-.826Z" transform="translate(-281.84 -146.4)" fill="#fff"/>
      </g>
      <g transform="matrix(1, 0, 0, 1, 1315, 1488)" filter="url(#Path_30)">
        <path id="Path_30-2" data-name="Path 30" d="M283.884,142.822V140.61a.584.584,0,0,0-1.168,0v2.212a.584.584,0,0,0,1.168,0Z" transform="translate(-245.63 -113.64)" fill="#fff"/>
      </g>
      <g transform="matrix(1, 0, 0, 1, 1315, 1488)" filter="url(#Path_31)">
        <path id="Path_31-2" data-name="Path 31" d="M348.694,235.777a.584.584,0,0,0,.584.584h2.212a.584.584,0,0,0,0-1.168h-2.212A.584.584,0,0,0,348.694,235.777Z" transform="translate(-306.44 -201.32)" fill="#fff"/>
      </g>
      <g transform="matrix(1, 0, 0, 1, 1315, 1488)" filter="url(#Path_32)">
        <path id="Path_32-2" data-name="Path 32" d="M49.306,169.028a.584.584,0,0,0-.584-.584H43.728a.584.584,0,1,0,0,1.168h4.995A.584.584,0,0,0,49.306,169.028Z" transform="translate(-24.79 -139.83)" fill="#fff"/>
      </g>
      <g transform="matrix(1, 0, 0, 1, 1315, 1488)" filter="url(#Path_33)">
        <path id="Path_33-2" data-name="Path 33" d="M43.728,205.918a.584.584,0,0,0,0,1.168h3.438a.584.584,0,0,0,0-1.168Z" transform="translate(-24.79 -174.35)" fill="#fff"/>
      </g>
      <g transform="matrix(1, 0, 0, 1, 1315, 1488)" filter="url(#Path_34)">
        <path id="Path_34-2" data-name="Path 34" d="M350.972,365.523h-8.287a.584.584,0,0,0,0,1.168h8.287a.584.584,0,0,0,0-1.168Z" transform="translate(-300.33 -321.39)" fill="#fff"/>
      </g>
      <g transform="matrix(1, 0, 0, 1, 1315, 1488)" filter="url(#Path_35)">
        <path id="Path_35-2" data-name="Path 35" d="M387.858,398.567h-5.173a.584.584,0,0,0,0,1.168h5.173a.584.584,0,0,0,0-1.168Z" transform="translate(-337.21 -351.78)" fill="#fff"/>
      </g>
      <g transform="matrix(1, 0, 0, 1, 1315, 1488)" filter="url(#Path_36)">
        <path id="Path_36-2" data-name="Path 36" d="M35.988,33.667H12.553a.59.59,0,0,0,0,1.181H35.988a2.854,2.854,0,0,1,2.84,2.861v1.943H1.172V37.709a2.854,2.854,0,0,1,2.84-2.861h6.2a.59.59,0,0,0,0-1.181h-6.2A4.031,4.031,0,0,0,0,37.709V64.625a4.031,4.031,0,0,0,4.012,4.042H35.988A4.031,4.031,0,0,0,40,64.625V63.162a.586.586,0,1,0-1.172,0v1.463a2.854,2.854,0,0,1-2.84,2.861H4.012a2.854,2.854,0,0,1-2.84-2.861V40.832H38.828V60.8A.586.586,0,1,0,40,60.8V37.709A4.031,4.031,0,0,0,35.988,33.667Z" transform="translate(15 -15.67)" fill="#fff"/>
      </g>
    </g>
  </g>
</svg>
