<svg xmlns="http://www.w3.org/2000/svg" xmlns:xlink="http://www.w3.org/1999/xlink" width="70" height="70" viewBox="0 0 70 70">
  <defs>
    <linearGradient id="linear-gradient" x1="0.92" y1="0.888" x2="0.124" y2="0.067" gradientUnits="objectBoundingBox">
      <stop offset="0" stop-color="#8585f2"/>
      <stop offset="1" stop-color="#c5c5ff"/>
    </linearGradient>
    <filter id="Path_17" x="10.5" y="12.5" width="49" height="49" filterUnits="userSpaceOnUse">
      <feOffset dy="2" input="SourceAlpha"/>
      <feGaussianBlur stdDeviation="1.5" result="blur"/>
      <feFlood flood-opacity="0.2"/>
      <feComposite operator="in" in2="blur"/>
      <feComposite in="SourceGraphic"/>
    </filter>
  </defs>
  <g id="MobileDesignLogo" transform="translate(-925 -1158)">
    <rect id="Rectangle_10" data-name="Rectangle 10" width="70" height="70" rx="20" transform="translate(925 1158)" fill="url(#linear-gradient)"/>
    <g transform="matrix(1, 0, 0, 1, 925, 1158)" filter="url(#Path_17)">
      <path id="Path_17-2" data-name="Path 17" d="M21.758,34.629H18.242v3.523h3.516Zm-1.172,2.348H19.414V35.8h1.172ZM18.047,2.848h3.906V4.023H18.047Zm5.078,0H24.3V4.023H23.125Zm-7.422,0h1.172V4.023H15.7Zm6.226,21.777.829.83L20,28.219l-2.758-2.763.829-.83,1.344,1.346v-2.81h1.172v2.81Zm-7.593-2.559a1.758,1.758,0,1,0,3.516,0v-.587h4.3v.587a1.758,1.758,0,1,0,3.516,0v-.587h.781V17.173c-.106-.6.448-2.454-1.172-3.03V13.064a5.273,5.273,0,1,0-10.547,0v1.079c-1.619.575-1.066,2.428-1.172,3.03v4.305h.781Zm2.344,0a.586.586,0,0,1-1.172,0v-.587H16.68Zm7.227.587c-.792,0-.547-1-.586-1.174h1.172C24.457,21.637,24.69,22.653,23.906,22.653ZM25.273,15.8v1.37H24.1V15.8A.586.586,0,0,1,25.273,15.8ZM15.9,13.064a4.1,4.1,0,1,1,8.2,0v1.079A1.764,1.764,0,0,0,22.93,15.8v1.37H17.07V15.8a1.764,1.764,0,0,0-1.172-1.66ZM14.727,15.8a.586.586,0,0,1,1.172,0v1.37H14.727Zm0,2.544H25.273V20.3H14.727Zm24.063,10.8V27.976h1.172V24.453H38.008c-.062-1.252.2-2.209-.414-3.433-.574-1.15-.139-1.855.083-5.178H33.26l.36,3.679c.133,1.364-.69,1.664-.69,3.254v1.678H30.976v3.523h1.172V29.15H29.961V3.435A2.936,2.936,0,0,0,27.031.5H12.969a2.936,2.936,0,0,0-2.93,2.935V29.15H7.227V27.976H8.4V8.015H0V9.189H7.227v5.088H6.055V10.95H4.883v3.327H3.711V12.516H2.539v1.761H0v1.174H7.227v5.088H4.492V18.778H3.32v1.761H2.148V17.212H.977v3.327H0v1.174H7.227V26.8H6.055V23.475H4.883V26.8H3.711V23.475H2.539V26.8H0v1.174H6.055V29.15H0v1.174H10.039v7.241a2.936,2.936,0,0,0,2.93,2.935H27.031a2.936,2.936,0,0,0,2.93-2.935V30.324H40V29.15Zm-10,8.415a1.762,1.762,0,0,1-1.758,1.761H12.969a1.761,1.761,0,0,1-1.758-1.761v-4.11H28.789Zm0-5.284H11.211V6.371H28.789Zm0-27.084H11.211V3.435a1.761,1.761,0,0,1,1.758-1.761H27.031a1.762,1.762,0,0,1,1.758,1.761Zm5.6,16.348c.758-1.519.243-2.666.161-4.528h1.833c-.081,1.856-.6,3.009.161,4.528.445.891.236,1.563.29,2.908H34.1C34.155,23.108,33.947,22.436,34.391,21.545Zm-2.243,4.082h6.641V26.8H32.148Zm5.469,3.523h-4.3V27.976h4.3Z" transform="translate(15 14.5)" fill="#fff"/>
    </g>
  </g>
</svg>
