<svg xmlns="http://www.w3.org/2000/svg" xmlns:xlink="http://www.w3.org/1999/xlink" width="70" height="70" viewBox="0 0 70 70">
  <defs>
    <linearGradient id="linear-gradient" x1="0.08" y1="0.112" x2="0.876" y2="0.933" gradientUnits="objectBoundingBox">
      <stop offset="0" stop-color="#51ecc9"/>
      <stop offset="1" stop-color="#ccfff3"/>
    </linearGradient>
    <filter id="Path_8" x="10.5" y="15.5" width="49" height="43" filterUnits="userSpaceOnUse">
      <feOffset dy="2" input="SourceAlpha"/>
      <feGaussianBlur stdDeviation="1.5" result="blur"/>
      <feFlood flood-opacity="0.102"/>
      <feComposite operator="in" in2="blur"/>
      <feComposite in="SourceGraphic"/>
    </filter>
  </defs>
  <g id="SiteDesginLogo" transform="translate(-1272 -1296)">
    <rect id="Rectangle_10" data-name="Rectangle 10" width="70" height="70" rx="20" transform="translate(1272 1296)" fill="url(#linear-gradient)"/>
    <g id="computer" transform="translate(1279 1258)">
      <g transform="matrix(1, 0, 0, 1, -7, 38)" filter="url(#Path_8)">
        <path id="Path_8-2" data-name="Path 8" d="M45.419,56H10.581A2.628,2.628,0,0,0,8,58.667V81.333A2.628,2.628,0,0,0,10.581,84h13.3l-.86,2.667H20.9a.656.656,0,0,0-.645.667v1.333H14.452a.667.667,0,0,0,0,1.333H42.839a.667.667,0,0,0,0-1.333h-7.1V87.333a.656.656,0,0,0-.645-.667H32.981L32.121,84h13.3A2.628,2.628,0,0,0,48,81.333V58.667A2.628,2.628,0,0,0,45.419,56ZM34.452,88v.667h-12.9V88ZM24.379,86.667,25.24,84H30.76l.86,2.667ZM46.71,81.333a1.314,1.314,0,0,1-1.29,1.333H10.581a1.314,1.314,0,0,1-1.29-1.333V80H46.71ZM18.94,72.667l-.242,6h-.752l-.242-6Zm-1.147-1.333.431-2.667h.2l.431,2.667Zm.529-4c-.7,0-1.29-.916-1.29-2a4.664,4.664,0,0,1,1.289-2.379,4.672,4.672,0,0,1,1.292,2.379C19.613,66.418,19.022,67.333,18.323,67.333ZM25.344,66l.076.158v.509H22.839v-.509L22.915,66ZM23.56,64.667l.569-1.176.569,1.176ZM25.419,68V78.583a.71.71,0,0,0,.006.083H22.833a.71.71,0,0,0,.006-.083V68Zm5.806-2.667h1.935v1.333h-.645a.667.667,0,0,0,0,1.333h.645v1.333H31.226a.667.667,0,0,0,0,1.333h1.935V72h-.645a.667.667,0,0,0,0,1.333h.645v1.333H31.226a.667.667,0,0,0,0,1.333h1.935v2.667H28.645v-16h4.516V64H31.226a.667.667,0,0,0,0,1.333Zm7.742,8v5.25a.712.712,0,0,0,.006.083H36.381a.71.71,0,0,0,.006-.083v-5.25ZM36.387,72v-.509l1.29-2.667,1.29,2.667V72ZM46.71,78.667H40.252a.709.709,0,0,0,.006-.083v-7.25a.692.692,0,0,0-.068-.3l-1.935-4a.637.637,0,0,0-1.155,0l-1.935,4a.692.692,0,0,0-.068.3v7.25a.711.711,0,0,0,.006.083h-.651V62a.656.656,0,0,0-.645-.667H28a.656.656,0,0,0-.645.667V78.667H26.7a.711.711,0,0,0,.006-.083V66a.692.692,0,0,0-.068-.3l-1.935-4a.637.637,0,0,0-1.155,0l-1.935,4a.692.692,0,0,0-.068.3V78.583a.711.711,0,0,0,.006.083H19.99l.268-6.639c0-.015,0-.03,0-.046v-.02a.688.688,0,0,0-.008-.07v0l-.6-3.7A3.619,3.619,0,0,0,20.9,65.333c0-1.713-1.922-3.611-2.141-3.822a.631.631,0,0,0-.879,0c-.219.211-2.141,2.108-2.141,3.822a3.619,3.619,0,0,0,1.251,2.856l-.6,3.7v0a.69.69,0,0,0-.008.07v.02c0,.016,0,.031,0,.046l.268,6.639H9.29v-20a1.314,1.314,0,0,1,1.29-1.333H45.419a1.314,1.314,0,0,1,1.29,1.333Z" transform="translate(7 -38)" fill="#fff"/>
      </g>
      <path id="Path_9" data-name="Path 9" d="M44.364,352H40.623a.623.623,0,1,0,0,1.247h3.741a.623.623,0,1,0,0-1.247Z" transform="translate(-29.506 -271.268)" fill="#fff"/>
      <path id="Path_10" data-name="Path 10" d="M113.247,352h-.623a.623.623,0,1,0,0,1.247h.623a.623.623,0,1,0,0-1.247Z" transform="translate(-95.599 -271.268)" fill="#fff"/>
      <path id="Path_11" data-name="Path 11" d="M200.623,208a.623.623,0,0,0-.623.623v6.858a.623.623,0,1,0,1.247,0v-6.858A.623.623,0,0,0,200.623,208Z" transform="translate(-176.499 -139.052)" fill="#fff"/>
      <path id="Path_12" data-name="Path 12" d="M368.623,272a.623.623,0,0,0-.623.623v1.87a.623.623,0,0,0,1.247,0v-1.87A.623.623,0,0,0,368.623,272Z" transform="translate(-330.935 -197.873)" fill="#fff"/>
      <path id="Path_13" data-name="Path 13" d="M40.623,89.247h4.988a.623.623,0,1,0,0-1.247H40.623a.623.623,0,1,0,0,1.247Z" transform="translate(-29.506 -29.506)" fill="#fff"/>
      <path id="Path_14" data-name="Path 14" d="M40.623,113.247H41.87a.623.623,0,1,0,0-1.247H40.623a.623.623,0,1,0,0,1.247Z" transform="translate(-29.506 -51.636)" fill="#fff"/>
      <path id="Path_15" data-name="Path 15" d="M424.623,297.247h2.494a.623.623,0,1,0,0-1.247h-2.494a.623.623,0,0,0,0,1.247Z" transform="translate(-382.235 -219.947)" fill="#fff"/>
      <path id="Path_16" data-name="Path 16" d="M448.623,273.247h.623a.623.623,0,1,0,0-1.247h-.623a.623.623,0,1,0,0,1.247Z" transform="translate(-404.364 -197.952)" fill="#fff"/>
    </g>
  </g>
</svg>
